<?xml version="1.0" encoding="UTF-8" standalone="no"?>
<!DOCTYPE svg PUBLIC "-//W3C//DTD SVG 1.1//EN"
 "http://www.w3.org/Graphics/SVG/1.1/DTD/svg11.dtd">
<!-- Generated by graphviz version 2.50.0 (0)
 -->
<!-- Pages: 1 -->
<svg width="929pt" height="1277pt"
 viewBox="0.00 0.00 928.50 1276.74" xmlns="http://www.w3.org/2000/svg" xmlns:xlink="http://www.w3.org/1999/xlink">
<g id="graph0" class="graph" transform="scale(1 1) rotate(0) translate(4 1272.74)">
<!-- Start -->
<g id="node1" class="node">
<title>Start</title>
<ellipse fill="none" stroke="black" cx="445" cy="-1230.55" rx="264.42" ry="38.37"/>
<text text-anchor="middle" x="445" y="-1242.35" font-family="Times,serif" font-size="14.00">Start</text>
<text text-anchor="middle" x="445" y="-1211.35" font-family="Times,serif" font-size="14.00">You click the &quot;Dial Number&quot; button on the screen.</text>
</g>
<!-- Button Click -->
<g id="node2" class="node">
<title>Button Click</title>
<polygon fill="none" stroke="black" points="746,-1156.37 144,-1156.37 144,-1102.37 746,-1102.37 746,-1156.37"/>
<text text-anchor="middle" x="445" y="-1141.17" font-family="Times,serif" font-size="14.00">Button Click</text>
<text text-anchor="middle" x="445" y="-1110.17" font-family="Times,serif" font-size="14.00">When you click the button, the website gets a signal that you want to make a call.</text>
</g>
<!-- Start&#45;&gt;Button Click -->
<g id="edge1" class="edge">
<title>Start&#45;&gt;Button Click</title>
<path fill="none" stroke="black" d="M445,-1192.34C445,-1183.99 445,-1175.14 445,-1166.82"/>
<polygon fill="black" stroke="black" points="448.5,-1166.65 445,-1156.65 441.5,-1166.65 448.5,-1166.65"/>
</g>
<!-- Calling Function -->
<g id="node3" class="node">
<title>Calling Function</title>
<polygon fill="none" stroke="black" points="754,-1066.37 136,-1066.37 136,-1012.37 754,-1012.37 754,-1066.37"/>
<text text-anchor="middle" x="445" y="-1051.17" font-family="Times,serif" font-size="14.00">Calling Function</text>
<text text-anchor="middle" x="445" y="-1020.17" font-family="Times,serif" font-size="14.00">The website then follows a set of instructions, like a recipe, to start making the call.</text>
</g>
<!-- Button Click&#45;&gt;Calling Function -->
<g id="edge2" class="edge">
<title>Button Click&#45;&gt;Calling Function</title>
<path fill="none" stroke="black" d="M445,-1101.96C445,-1093.97 445,-1085.06 445,-1076.54"/>
<polygon fill="black" stroke="black" points="448.5,-1076.45 445,-1066.45 441.5,-1076.45 448.5,-1076.45"/>
</g>
<!-- Preparing -->
<g id="node4" class="node">
<title>Preparing</title>
<polygon fill="none" stroke="black" points="890,-976.37 0,-976.37 0,-922.37 890,-922.37 890,-976.37"/>
<text text-anchor="middle" x="445" y="-961.17" font-family="Times,serif" font-size="14.00">Preparing</text>
<text text-anchor="middle" x="445" y="-930.17" font-family="Times,serif" font-size="14.00">It gets everything ready for the call, like checking if the information you entered is correct and making sure it&#39;s all set up.</text>
</g>
<!-- Calling Function&#45;&gt;Preparing -->
<g id="edge3" class="edge">
<title>Calling Function&#45;&gt;Preparing</title>
<path fill="none" stroke="black" d="M445,-1011.96C445,-1003.97 445,-995.06 445,-986.54"/>
<polygon fill="black" stroke="black" points="448.5,-986.45 445,-976.45 441.5,-986.45 448.5,-986.45"/>
</g>
<!-- Initiating the Call -->
<g id="node5" class="node">
<title>Initiating the Call</title>
<polygon fill="none" stroke="black" points="722,-886.37 168,-886.37 168,-817.37 722,-817.37 722,-886.37"/>
<text text-anchor="middle" x="445" y="-871.17" font-family="Times,serif" font-size="14.00">Initiating the Call</text>
<text text-anchor="middle" x="445" y="-840.17" font-family="Times,serif" font-size="14.00">It&#39;s like pressing the &quot;call&quot; button on your phone.</text>
<text text-anchor="middle" x="445" y="-825.17" font-family="Times,serif" font-size="14.00">The website tells the system to start dialing the customer&#39;s phone number.</text>
</g>
<!-- Preparing&#45;&gt;Initiating the Call -->
<g id="edge4" class="edge">
<title>Preparing&#45;&gt;Initiating the Call</title>
<path fill="none" stroke="black" d="M445,-922.27C445,-914.33 445,-905.38 445,-896.61"/>
<polygon fill="black" stroke="black" points="448.5,-896.47 445,-886.47 441.5,-896.47 448.5,-896.47"/>
</g>
<!-- Loading -->
<g id="node6" class="node">
<title>Loading</title>
<polygon fill="none" stroke="black" points="814,-781.37 76,-781.37 76,-727.37 814,-727.37 814,-781.37"/>
<text text-anchor="middle" x="445" y="-766.17" font-family="Times,serif" font-size="14.00">Loading</text>
<text text-anchor="middle" x="445" y="-735.17" font-family="Times,serif" font-size="14.00">While the call is being set up, you might see a loading icon to show that the website is working on it.</text>
</g>
<!-- Initiating the Call&#45;&gt;Loading -->
<g id="edge5" class="edge">
<title>Initiating the Call&#45;&gt;Loading</title>
<path fill="none" stroke="black" d="M445,-817.2C445,-808.97 445,-800.12 445,-791.77"/>
<polygon fill="black" stroke="black" points="448.5,-791.54 445,-781.54 441.5,-791.54 448.5,-791.54"/>
</g>
<!-- Getting the Number -->
<g id="node7" class="node">
<title>Getting the Number</title>
<polygon fill="none" stroke="black" points="806,-691.37 84,-691.37 84,-637.37 806,-637.37 806,-691.37"/>
<text text-anchor="middle" x="445" y="-676.17" font-family="Times,serif" font-size="14.00">Getting the Number</text>
<text text-anchor="middle" x="445" y="-645.17" font-family="Times,serif" font-size="14.00">The website knows which phone number you want to call and takes that number out, ready to use.</text>
</g>
<!-- Loading&#45;&gt;Getting the Number -->
<g id="edge6" class="edge">
<title>Loading&#45;&gt;Getting the Number</title>
<path fill="none" stroke="black" d="M445,-726.96C445,-718.97 445,-710.06 445,-701.54"/>
<polygon fill="black" stroke="black" points="448.5,-701.45 445,-691.45 441.5,-701.45 448.5,-701.45"/>
</g>
<!-- Making the Call -->
<g id="node8" class="node">
<title>Making the Call</title>
<polygon fill="none" stroke="black" points="708.5,-601.37 181.5,-601.37 181.5,-532.37 708.5,-532.37 708.5,-601.37"/>
<text text-anchor="middle" x="445" y="-586.17" font-family="Times,serif" font-size="14.00">Making the Call</text>
<text text-anchor="middle" x="445" y="-555.17" font-family="Times,serif" font-size="14.00">Just like your phone connects to another phone when you call someone,</text>
<text text-anchor="middle" x="445" y="-540.17" font-family="Times,serif" font-size="14.00">the website connects to the customer&#39;s phone.</text>
</g>
<!-- Getting the Number&#45;&gt;Making the Call -->
<g id="edge7" class="edge">
<title>Getting the Number&#45;&gt;Making the Call</title>
<path fill="none" stroke="black" d="M445,-637.27C445,-629.33 445,-620.38 445,-611.61"/>
<polygon fill="black" stroke="black" points="448.5,-611.47 445,-601.47 441.5,-611.47 448.5,-611.47"/>
</g>
<!-- Waiting for Result -->
<g id="node9" class="node">
<title>Waiting for Result</title>
<polygon fill="none" stroke="black" points="665,-496.37 225,-496.37 225,-427.37 665,-427.37 665,-496.37"/>
<text text-anchor="middle" x="445" y="-481.17" font-family="Times,serif" font-size="14.00">Waiting for Result</text>
<text text-anchor="middle" x="445" y="-450.17" font-family="Times,serif" font-size="14.00">The website waits to hear back from the customer&#39;s phone.</text>
<text text-anchor="middle" x="445" y="-435.17" font-family="Times,serif" font-size="14.00">It&#39;s like waiting for them to pick up and say &quot;hello.&quot;</text>
</g>
<!-- Making the Call&#45;&gt;Waiting for Result -->
<g id="edge8" class="edge">
<title>Making the Call&#45;&gt;Waiting for Result</title>
<path fill="none" stroke="black" d="M445,-532.14C445,-524.05 445,-515.29 445,-506.81"/>
<polygon fill="black" stroke="black" points="448.5,-506.67 445,-496.67 441.5,-506.67 448.5,-506.67"/>
</g>
<!-- Call Status -->
<g id="node10" class="node">
<title>Call Status</title>
<polygon fill="none" stroke="black" points="770,-391.37 120,-391.37 120,-307.37 770,-307.37 770,-391.37"/>
<text text-anchor="middle" x="445" y="-376.17" font-family="Times,serif" font-size="14.00">Call Status</text>
<text text-anchor="middle" x="445" y="-345.17" font-family="Times,serif" font-size="14.00">The website figures out if the call went through successfully or if there&#39;s a problem.</text>
<text text-anchor="middle" x="445" y="-330.17" font-family="Times,serif" font-size="14.00">&#45; If the call works, it moves on to the next step.</text>
<text text-anchor="middle" x="445" y="-315.17" font-family="Times,serif" font-size="14.00">&#45; If there&#39;s a problem, the website might show you a message to explain what happened.</text>
</g>
<!-- Waiting for Result&#45;&gt;Call Status -->
<g id="edge9" class="edge">
<title>Waiting for Result&#45;&gt;Call Status</title>
<path fill="none" stroke="black" d="M445,-427.11C445,-419.08 445,-410.34 445,-401.72"/>
<polygon fill="black" stroke="black" points="448.5,-401.71 445,-391.71 441.5,-401.71 448.5,-401.71"/>
</g>
<!-- Update Loading -->
<g id="node11" class="node">
<title>Update Loading</title>
<polygon fill="none" stroke="black" points="507,-271.37 31,-271.37 31,-217.37 507,-217.37 507,-271.37"/>
<text text-anchor="middle" x="269" y="-256.17" font-family="Times,serif" font-size="14.00">Update Loading</text>
<text text-anchor="middle" x="269" y="-225.17" font-family="Times,serif" font-size="14.00">The loading icon might change to show if the call worked or not.</text>
</g>
<!-- Call Status&#45;&gt;Update Loading -->
<g id="edge10" class="edge">
<title>Call Status&#45;&gt;Update Loading</title>
<path fill="none" stroke="black" d="M374.93,-307.36C357.46,-297.14 339.01,-286.34 322.48,-276.67"/>
<polygon fill="black" stroke="black" points="323.92,-273.45 313.52,-271.42 320.38,-279.49 323.92,-273.45"/>
</g>
<!-- Error Message -->
<g id="node12" class="node">
<title>Error Message</title>
<polygon fill="none" stroke="black" points="920.5,-181.37 411.5,-181.37 411.5,-112.37 920.5,-112.37 920.5,-181.37"/>
<text text-anchor="middle" x="666" y="-166.17" font-family="Times,serif" font-size="14.00">Error Message</text>
<text text-anchor="middle" x="666" y="-135.17" font-family="Times,serif" font-size="14.00">If there was a problem with the call, he website might show </text>
<text text-anchor="middle" x="666" y="-120.17" font-family="Times,serif" font-size="14.00">tyou a message to let you know that something didn&#39;t go as planned.</text>
</g>
<!-- Call Status&#45;&gt;Error Message -->
<g id="edge11" class="edge">
<title>Call Status&#45;&gt;Error Message</title>
<path fill="none" stroke="black" d="M490.26,-307.31C528.45,-272.65 582.86,-223.3 620.99,-188.7"/>
<polygon fill="black" stroke="black" points="623.81,-190.87 628.87,-181.56 619.11,-185.68 623.81,-190.87"/>
</g>
<!-- Success Message -->
<g id="node13" class="node">
<title>Success Message</title>
<polygon fill="none" stroke="black" points="393.5,-181.37 58.5,-181.37 58.5,-112.37 393.5,-112.37 393.5,-181.37"/>
<text text-anchor="middle" x="226" y="-166.17" font-family="Times,serif" font-size="14.00">Success Message</text>
<text text-anchor="middle" x="226" y="-135.17" font-family="Times,serif" font-size="14.00">If the call worked, you might see a message </text>
<text text-anchor="middle" x="226" y="-120.17" font-family="Times,serif" font-size="14.00">that says the call was successfully started.</text>
</g>
<!-- Update Loading&#45;&gt;Success Message -->
<g id="edge12" class="edge">
<title>Update Loading&#45;&gt;Success Message</title>
<path fill="none" stroke="black" d="M257.25,-217.27C253.56,-209.07 249.38,-199.8 245.31,-190.75"/>
<polygon fill="black" stroke="black" points="248.43,-189.15 241.13,-181.47 242.04,-192.03 248.43,-189.15"/>
</g>
<!-- End -->
<g id="node14" class="node">
<title>End</title>
<ellipse fill="none" stroke="black" cx="446" cy="-38.18" rx="188.18" ry="38.37"/>
<text text-anchor="middle" x="446" y="-49.98" font-family="Times,serif" font-size="14.00">End</text>
<text text-anchor="middle" x="446" y="-18.98" font-family="Times,serif" font-size="14.00">The whole process is now finished!</text>
</g>
<!-- Error Message&#45;&gt;End -->
<g id="edge14" class="edge">
<title>Error Message&#45;&gt;End</title>
<path fill="none" stroke="black" d="M596.69,-112.26C574.34,-101.42 549.39,-89.32 526.31,-78.13"/>
<polygon fill="black" stroke="black" points="527.76,-74.94 517.23,-73.73 524.7,-81.24 527.76,-74.94"/>
</g>
<!-- Success Message&#45;&gt;End -->
<g id="edge13" class="edge">
<title>Success Message&#45;&gt;End</title>
<path fill="none" stroke="black" d="M295.31,-112.26C317.66,-101.42 342.61,-89.32 365.69,-78.13"/>
<polygon fill="black" stroke="black" points="367.3,-81.24 374.77,-73.73 364.24,-74.94 367.3,-81.24"/>
</g>
</g>
</svg>
