<?xml version="1.0" encoding="UTF-8" standalone="no"?>
<!DOCTYPE svg PUBLIC "-//W3C//DTD SVG 1.1//EN"
 "http://www.w3.org/Graphics/SVG/1.1/DTD/svg11.dtd">
<!-- Generated by graphviz version 2.50.0 (0)
 -->
<!-- Pages: 1 -->
<svg width="654pt" height="965pt"
 viewBox="0.00 0.00 654.00 965.37" xmlns="http://www.w3.org/2000/svg" xmlns:xlink="http://www.w3.org/1999/xlink">
<?xml version="1.0" encoding="UTF-8" standalone="no"?>
<!DOCTYPE svg PUBLIC "-//W3C//DTD SVG 1.1//EN"
 "http://www.w3.org/Graphics/SVG/1.1/DTD/svg11.dtd">
<!-- Generated by graphviz version 2.40.1 (20161225.0304)
 -->
<!-- Title: %3 Pages: 1 -->
<svg width="955pt" height="1653pt"
 viewBox="0.00 0.00 954.94 1653.00" xmlns="http://www.w3.org/2000/svg" xmlns:xlink="http://www.w3.org/1999/xlink">
<g id="graph0" class="graph" transform="scale(1 1) rotate(0) translate(4 1649)">
<title>%3</title>
<polygon fill="#ffffff" stroke="transparent" points="-4,4 -4,-1649 950.9371,-1649 950.9371,4 -4,4"/>
<!-- 1 -->
<g id="node1" class="node">
<title>1</title>
<path fill="#2d4b5a" stroke="#000000" d="M251,-1571C251,-1571 221,-1571 221,-1571 215,-1571 209,-1565 209,-1559 209,-1559 209,-1547 209,-1547 209,-1541 215,-1535 221,-1535 221,-1535 251,-1535 251,-1535 257,-1535 263,-1541 263,-1547 263,-1547 263,-1559 263,-1559 263,-1565 257,-1571 251,-1571"/>
<text text-anchor="middle" x="236" y="-1549.3" font-family="Times,serif" font-size="14.00" fill="#ffffff">Start</text>
</g>
<!-- 2 -->
<g id="node2" class="node">
<title>2</title>
<path fill="#359fff" stroke="#000000" d="M328,-1499C328,-1499 144,-1499 144,-1499 138,-1499 132,-1493 132,-1487 132,-1487 132,-1413 132,-1413 132,-1407 138,-1401 144,-1401 144,-1401 328,-1401 328,-1401 334,-1401 340,-1407 340,-1413 340,-1413 340,-1487 340,-1487 340,-1493 334,-1499 328,-1499"/>
<text text-anchor="middle" x="236" y="-1483.8" font-family="Times,serif" font-size="14.00" fill="#ffffff">Display form on the</text>
<text text-anchor="middle" x="236" y="-1468.8" font-family="Times,serif" font-size="14.00" fill="#ffffff">front end with fields</text>
<text text-anchor="middle" x="236" y="-1453.8" font-family="Times,serif" font-size="14.00" fill="#ffffff">for first name, last</text>
<text text-anchor="middle" x="236" y="-1438.8" font-family="Times,serif" font-size="14.00" fill="#ffffff">name, email, password, phone</text>
<text text-anchor="middle" x="236" y="-1423.8" font-family="Times,serif" font-size="14.00" fill="#ffffff">number, technician rate, language,</text>
<text text-anchor="middle" x="236" y="-1408.8" font-family="Times,serif" font-size="14.00" fill="#ffffff">additional language, and timezone.</text>
</g>
<!-- 1&#45;&gt;2 -->
<g id="edge1" class="edge">
<title>1&#45;&gt;2</title>
<path fill="none" stroke="#677d92" stroke-width="1.5" d="M236,-1534.5857C236,-1527.2767 236,-1518.4259 236,-1509.2389"/>
<polygon fill="#677d92" stroke="#677d92" stroke-width="1.5" points="239.5001,-1509.195 236,-1499.1951 232.5001,-1509.1951 239.5001,-1509.195"/>
</g>
<!-- 3 -->
<g id="node3" class="node">
<title>3</title>
<path fill="#359fff" stroke="#000000" d="M365.5,-1365C365.5,-1365 288.5,-1365 288.5,-1365 282.5,-1365 276.5,-1359 276.5,-1353 276.5,-1353 276.5,-1339 276.5,-1339 276.5,-1333 282.5,-1327 288.5,-1327 288.5,-1327 365.5,-1327 365.5,-1327 371.5,-1327 377.5,-1333 377.5,-1339 377.5,-1339 377.5,-1353 377.5,-1353 377.5,-1359 371.5,-1365 365.5,-1365"/>
<text text-anchor="middle" x="327" y="-1349.8" font-family="Times,serif" font-size="14.00" fill="#ffffff">User fills in the</text>
<text text-anchor="middle" x="327" y="-1334.8" font-family="Times,serif" font-size="14.00" fill="#ffffff">fields.</text>
</g>
<!-- 2&#45;&gt;3 -->
<g id="edge2" class="edge">
<title>2&#45;&gt;3</title>
<path fill="none" stroke="#677d92" stroke-width="1.5" d="M279.1016,-1400.7411C287.4567,-1391.1923 295.92,-1381.52 303.3603,-1373.0168"/>
<polygon fill="#677d92" stroke="#677d92" stroke-width="1.5" points="306.1923,-1375.0953 310.1434,-1365.2647 300.9243,-1370.4857 306.1923,-1375.0953"/>
</g>
<!-- 4 -->
<g id="node4" class="node">
<title>4</title>
<path fill="#359fff" stroke="#000000" d="M373,-1291C373,-1291 281,-1291 281,-1291 275,-1291 269,-1285 269,-1279 269,-1279 269,-1265 269,-1265 269,-1259 275,-1253 281,-1253 281,-1253 373,-1253 373,-1253 379,-1253 385,-1259 385,-1265 385,-1265 385,-1279 385,-1279 385,-1285 379,-1291 373,-1291"/>
<text text-anchor="middle" x="327" y="-1275.8" font-family="Times,serif" font-size="14.00" fill="#ffffff">User clicks on the</text>
<text text-anchor="middle" x="327" y="-1260.8" font-family="Times,serif" font-size="14.00" fill="#ffffff">&quot;Sign Up&quot; button.</text>
</g>
<!-- 3&#45;&gt;4 -->
<g id="edge3" class="edge">
<title>3&#45;&gt;4</title>
<path fill="none" stroke="#677d92" stroke-width="1.5" d="M327,-1326.9432C327,-1319.1493 327,-1309.9538 327,-1301.3381"/>
<polygon fill="#677d92" stroke="#677d92" stroke-width="1.5" points="330.5001,-1301.2494 327,-1291.2495 323.5001,-1301.2495 330.5001,-1301.2494"/>
</g>
<!-- 5 -->
<g id="node5" class="node">
<title>5</title>
<path fill="#ffc32c" stroke="#000000" d="M174.3959,-1211.3827C174.3959,-1211.3827 10.6041,-1124.6173 10.6041,-1124.6173 5.302,-1121.8086 5.302,-1116.1914 10.6041,-1113.3827 10.6041,-1113.3827 174.3959,-1026.6173 174.3959,-1026.6173 179.698,-1023.8086 190.302,-1023.8086 195.6041,-1026.6173 195.6041,-1026.6173 359.3959,-1113.3827 359.3959,-1113.3827 364.698,-1116.1914 364.698,-1121.8086 359.3959,-1124.6173 359.3959,-1124.6173 195.6041,-1211.3827 195.6041,-1211.3827 190.302,-1214.1914 179.698,-1214.1914 174.3959,-1211.3827"/>
<text text-anchor="middle" x="185" y="-1152.8" font-family="Times,serif" font-size="14.00" fill="#000000">Check if the phone</text>
<text text-anchor="middle" x="185" y="-1137.8" font-family="Times,serif" font-size="14.00" fill="#000000">number is valid. &#45;</text>
<text text-anchor="middle" x="185" y="-1122.8" font-family="Times,serif" font-size="14.00" fill="#000000">If not valid, display</text>
<text text-anchor="middle" x="185" y="-1107.8" font-family="Times,serif" font-size="14.00" fill="#000000">error message &quot;Phone Number</text>
<text text-anchor="middle" x="185" y="-1092.8" font-family="Times,serif" font-size="14.00" fill="#000000">Not Valid&quot; and go</text>
<text text-anchor="middle" x="185" y="-1077.8" font-family="Times,serif" font-size="14.00" fill="#000000">back to step 3.</text>
</g>
<!-- 4&#45;&gt;5 -->
<g id="edge4" class="edge">
<title>4&#45;&gt;5</title>
<path fill="none" stroke="#677d92" stroke-width="1.5" d="M309.3027,-1252.9318C295.0084,-1237.5301 273.9211,-1214.8094 253.1585,-1192.4383"/>
<polygon fill="#677d92" stroke="#677d92" stroke-width="1.5" points="255.508,-1189.8248 246.1399,-1184.8761 250.3772,-1194.5867 255.508,-1189.8248"/>
</g>
<!-- 12 -->
<g id="node12" class="node">
<title>12</title>
<path fill="#359fff" stroke="#000000" d="M513.5,-1138C513.5,-1138 422.5,-1138 422.5,-1138 416.5,-1138 410.5,-1132 410.5,-1126 410.5,-1126 410.5,-1112 410.5,-1112 410.5,-1106 416.5,-1100 422.5,-1100 422.5,-1100 513.5,-1100 513.5,-1100 519.5,-1100 525.5,-1106 525.5,-1112 525.5,-1112 525.5,-1126 525.5,-1126 525.5,-1132 519.5,-1138 513.5,-1138"/>
<text text-anchor="middle" x="468" y="-1122.8" font-family="Times,serif" font-size="14.00" fill="#ffffff">User clicks on the</text>
<text text-anchor="middle" x="468" y="-1107.8" font-family="Times,serif" font-size="14.00" fill="#ffffff">&quot;Next&quot; button.</text>
</g>
<!-- 4&#45;&gt;12 -->
<g id="edge5" class="edge">
<title>4&#45;&gt;12</title>
<path fill="none" stroke="#677d92" stroke-width="1.5" d="M345.1435,-1252.9982C355.1761,-1242.4438 367.8356,-1229.0484 379,-1217 401.2029,-1193.0392 426.1861,-1165.4759 444.0181,-1145.6963"/>
<polygon fill="#677d92" stroke="#677d92" stroke-width="1.5" points="446.6262,-1148.0304 450.7181,-1138.2576 441.4249,-1143.3456 446.6262,-1148.0304"/>
</g>
<!-- 6 -->
<g id="node6" class="node">
<title>6</title>
<path fill="#ffc32c" stroke="#000000" d="M174.4608,-979.262C174.4608,-979.262 15.5392,-892.738 15.5392,-892.738 10.2696,-889.869 10.2696,-884.131 15.5392,-881.262 15.5392,-881.262 174.4608,-794.738 174.4608,-794.738 179.7304,-791.869 190.2696,-791.869 195.5392,-794.738 195.5392,-794.738 354.4608,-881.262 354.4608,-881.262 359.7304,-884.131 359.7304,-889.869 354.4608,-892.738 354.4608,-892.738 195.5392,-979.262 195.5392,-979.262 190.2696,-982.131 179.7304,-982.131 174.4608,-979.262"/>
<text text-anchor="middle" x="185" y="-920.8" font-family="Times,serif" font-size="14.00" fill="#000000">Check if the email</text>
<text text-anchor="middle" x="185" y="-905.8" font-family="Times,serif" font-size="14.00" fill="#000000">address already exists. &#45;</text>
<text text-anchor="middle" x="185" y="-890.8" font-family="Times,serif" font-size="14.00" fill="#000000">If it exists, display</text>
<text text-anchor="middle" x="185" y="-875.8" font-family="Times,serif" font-size="14.00" fill="#000000">error message &quot;Email address</text>
<text text-anchor="middle" x="185" y="-860.8" font-family="Times,serif" font-size="14.00" fill="#000000">already exists&quot; and go</text>
<text text-anchor="middle" x="185" y="-845.8" font-family="Times,serif" font-size="14.00" fill="#000000">back to step 3.</text>
</g>
<!-- 5&#45;&gt;6 -->
<g id="edge6" class="edge">
<title>5&#45;&gt;6</title>
<path fill="none" stroke="#677d92" stroke-width="1.5" d="M178.3522,-1024.3021C178.2471,-1013.4622 178.2231,-1002.3653 178.28,-991.4078"/>
<polygon fill="#677d92" stroke="#677d92" stroke-width="1.5" points="181.7799,-991.4213 178.3552,-981.3953 174.7801,-991.3687 181.7799,-991.4213"/>
</g>
<!-- 6&#45;&gt;5 -->
<g id="edge7" class="edge">
<title>6&#45;&gt;5</title>
<path fill="none" stroke="#677d92" stroke-width="1.5" d="M191.6448,-981.3953C191.7514,-992.2304 191.777,-1003.3261 191.7215,-1014.2862"/>
<polygon fill="#677d92" stroke="#677d92" stroke-width="1.5" points="188.2216,-1014.2766 191.6478,-1024.3021 195.2214,-1014.3282 188.2216,-1014.2766"/>
</g>
<!-- 7 -->
<g id="node7" class="node">
<title>7</title>
<path fill="#359fff" stroke="#000000" d="M265.5,-753C265.5,-753 104.5,-753 104.5,-753 98.5,-753 92.5,-747 92.5,-741 92.5,-741 92.5,-727 92.5,-727 92.5,-721 98.5,-715 104.5,-715 104.5,-715 265.5,-715 265.5,-715 271.5,-715 277.5,-721 277.5,-727 277.5,-727 277.5,-741 277.5,-741 277.5,-747 271.5,-753 265.5,-753"/>
<text text-anchor="middle" x="185" y="-737.8" font-family="Times,serif" font-size="14.00" fill="#ffffff">Create a technician account</text>
<text text-anchor="middle" x="185" y="-722.8" font-family="Times,serif" font-size="14.00" fill="#ffffff">with the provided information.</text>
</g>
<!-- 6&#45;&gt;7 -->
<g id="edge8" class="edge">
<title>6&#45;&gt;7</title>
<path fill="none" stroke="#677d92" stroke-width="1.5" d="M185,-788.8044C185,-779.6278 185,-770.9053 185,-763.2276"/>
<polygon fill="#677d92" stroke="#677d92" stroke-width="1.5" points="188.5001,-763.1308 185,-753.1309 181.5001,-763.1309 188.5001,-763.1308"/>
</g>
<!-- 8 -->
<g id="node8" class="node">
<title>8</title>
<path fill="#2d4b5a" stroke="#000000" d="M233,-569C233,-569 203,-569 203,-569 197,-569 191,-563 191,-557 191,-557 191,-545 191,-545 191,-539 197,-533 203,-533 203,-533 233,-533 233,-533 239,-533 245,-539 245,-545 245,-545 245,-557 245,-557 245,-563 239,-569 233,-569"/>
<text text-anchor="middle" x="218" y="-547.3" font-family="Times,serif" font-size="14.00" fill="#ffffff">End</text>
</g>
<!-- 7&#45;&gt;8 -->
<g id="edge9" class="edge">
<title>7&#45;&gt;8</title>
<path fill="none" stroke="#677d92" stroke-width="1.5" d="M188.4692,-714.7617C194.2979,-682.4386 206.0831,-617.0845 212.8707,-579.4445"/>
<polygon fill="#677d92" stroke="#677d92" stroke-width="1.5" points="216.3938,-579.6289 214.7241,-569.1664 209.5049,-578.3865 216.3938,-579.6289"/>
</g>
<!-- 9 -->
<g id="node9" class="node">
<title>9</title>
<path fill="#359fff" stroke="#000000" d="M507,-1645C507,-1645 329,-1645 329,-1645 323,-1645 317,-1639 317,-1633 317,-1633 317,-1619 317,-1619 317,-1613 323,-1607 329,-1607 329,-1607 507,-1607 507,-1607 513,-1607 519,-1613 519,-1619 519,-1619 519,-1633 519,-1633 519,-1639 513,-1645 507,-1645"/>
<text text-anchor="middle" x="418" y="-1629.8" font-family="Times,serif" font-size="14.00" fill="#ffffff">Display error messages indicating</text>
<text text-anchor="middle" x="418" y="-1614.8" font-family="Times,serif" font-size="14.00" fill="#ffffff">the issue.</text>
</g>
<!-- 10 -->
<g id="node10" class="node">
<title>10</title>
<path fill="#359fff" stroke="#000000" d="M480,-1571C480,-1571 356,-1571 356,-1571 350,-1571 344,-1565 344,-1559 344,-1559 344,-1547 344,-1547 344,-1541 350,-1535 356,-1535 356,-1535 480,-1535 480,-1535 486,-1535 492,-1541 492,-1547 492,-1547 492,-1559 492,-1559 492,-1565 486,-1571 480,-1571"/>
<text text-anchor="middle" x="418" y="-1549.3" font-family="Times,serif" font-size="14.00" fill="#ffffff">User corrects the errors.</text>
</g>
<!-- 9&#45;&gt;10 -->
<g id="edge10" class="edge">
<title>9&#45;&gt;10</title>
<path fill="none" stroke="#677d92" stroke-width="1.5" d="M418,-1606.8201C418,-1599.0975 418,-1590.0282 418,-1581.5585"/>
<polygon fill="#677d92" stroke="#677d92" stroke-width="1.5" points="421.5001,-1581.2973 418,-1571.2973 414.5001,-1581.2974 421.5001,-1581.2973"/>
</g>
<!-- 11 -->
<g id="node11" class="node">
<title>11</title>
<path fill="#359fff" stroke="#000000" d="M465.5,-1476.5C465.5,-1476.5 370.5,-1476.5 370.5,-1476.5 364.5,-1476.5 358.5,-1470.5 358.5,-1464.5 358.5,-1464.5 358.5,-1435.5 358.5,-1435.5 358.5,-1429.5 364.5,-1423.5 370.5,-1423.5 370.5,-1423.5 465.5,-1423.5 465.5,-1423.5 471.5,-1423.5 477.5,-1429.5 477.5,-1435.5 477.5,-1435.5 477.5,-1464.5 477.5,-1464.5 477.5,-1470.5 471.5,-1476.5 465.5,-1476.5"/>
<text text-anchor="middle" x="418" y="-1461.3" font-family="Times,serif" font-size="14.00" fill="#ffffff">User tries again by</text>
<text text-anchor="middle" x="418" y="-1446.3" font-family="Times,serif" font-size="14.00" fill="#ffffff">going back to step</text>
<text text-anchor="middle" x="418" y="-1431.3" font-family="Times,serif" font-size="14.00" fill="#ffffff">3.</text>
</g>
<!-- 10&#45;&gt;11 -->
<g id="edge11" class="edge">
<title>10&#45;&gt;11</title>
<path fill="none" stroke="#677d92" stroke-width="1.5" d="M418,-1534.5857C418,-1521.3899 418,-1503.1685 418,-1487.0162"/>
<polygon fill="#677d92" stroke="#677d92" stroke-width="1.5" points="421.5001,-1486.7742 418,-1476.7743 414.5001,-1486.7743 421.5001,-1486.7742"/>
</g>
<!-- 11&#45;&gt;3 -->
<g id="edge12" class="edge">
<title>11&#45;&gt;3</title>
<path fill="none" stroke="#677d92" stroke-width="1.5" d="M394.8014,-1423.4873C381.2592,-1408.0105 364.2153,-1388.5317 350.604,-1372.976"/>
<polygon fill="#677d92" stroke="#677d92" stroke-width="1.5" points="353.055,-1370.462 343.8359,-1365.241 347.7869,-1375.0715 353.055,-1370.462"/>
</g>
<!-- 13 -->
<g id="node13" class="node">
<title>13</title>
<path fill="#359fff" stroke="#000000" d="M584.5,-936C584.5,-936 395.5,-936 395.5,-936 389.5,-936 383.5,-930 383.5,-924 383.5,-924 383.5,-850 383.5,-850 383.5,-844 389.5,-838 395.5,-838 395.5,-838 584.5,-838 584.5,-838 590.5,-838 596.5,-844 596.5,-850 596.5,-850 596.5,-924 596.5,-924 596.5,-930 590.5,-936 584.5,-936"/>
<text text-anchor="middle" x="490" y="-920.8" font-family="Times,serif" font-size="14.00" fill="#ffffff">Display form on the</text>
<text text-anchor="middle" x="490" y="-905.8" font-family="Times,serif" font-size="14.00" fill="#ffffff">front end with fields</text>
<text text-anchor="middle" x="490" y="-890.8" font-family="Times,serif" font-size="14.00" fill="#ffffff">for first name, last</text>
<text text-anchor="middle" x="490" y="-875.8" font-family="Times,serif" font-size="14.00" fill="#ffffff">name, email, password, language,</text>
<text text-anchor="middle" x="490" y="-860.8" font-family="Times,serif" font-size="14.00" fill="#ffffff">additional language, phone number,</text>
<text text-anchor="middle" x="490" y="-845.8" font-family="Times,serif" font-size="14.00" fill="#ffffff">and timezone.</text>
</g>
<!-- 12&#45;&gt;13 -->
<g id="edge13" class="edge">
<title>12&#45;&gt;13</title>
<path fill="none" stroke="#677d92" stroke-width="1.5" d="M469.8379,-1099.6188C472.9972,-1066.3025 479.5792,-996.8916 484.3659,-946.414"/>
<polygon fill="#677d92" stroke="#677d92" stroke-width="1.5" points="487.8682,-946.5546 485.328,-936.2689 480.8995,-945.8938 487.8682,-946.5546"/>
</g>
<!-- 14 -->
<g id="node14" class="node">
<title>14</title>
<path fill="#359fff" stroke="#000000" d="M740.5,-753C740.5,-753 589.5,-753 589.5,-753 583.5,-753 577.5,-747 577.5,-741 577.5,-741 577.5,-727 577.5,-727 577.5,-721 583.5,-715 589.5,-715 589.5,-715 740.5,-715 740.5,-715 746.5,-715 752.5,-721 752.5,-727 752.5,-727 752.5,-741 752.5,-741 752.5,-747 746.5,-753 740.5,-753"/>
<text text-anchor="middle" x="665" y="-737.8" font-family="Times,serif" font-size="14.00" fill="#ffffff">User enters their information</text>
<text text-anchor="middle" x="665" y="-722.8" font-family="Times,serif" font-size="14.00" fill="#ffffff">into the fields.</text>
</g>
<!-- 13&#45;&gt;14 -->
<g id="edge14" class="edge">
<title>13&#45;&gt;14</title>
<path fill="none" stroke="#677d92" stroke-width="1.5" d="M546.3344,-837.7477C575.9585,-811.8477 611.0651,-781.1546 635.3709,-759.9043"/>
<polygon fill="#677d92" stroke="#677d92" stroke-width="1.5" points="637.9514,-762.2972 643.1762,-753.0802 633.344,-757.0273 637.9514,-762.2972"/>
</g>
<!-- 15 -->
<g id="node15" class="node">
<title>15</title>
<path fill="#ffc32c" stroke="#000000" d="M444.3143,-671.9156C444.3143,-671.9156 288.6857,-558.0844 288.6857,-558.0844 283.8428,-554.5422 283.8428,-547.4578 288.6857,-543.9156 288.6857,-543.9156 444.3143,-430.0844 444.3143,-430.0844 449.1572,-426.5422 458.8428,-426.5422 463.6857,-430.0844 463.6857,-430.0844 619.3143,-543.9156 619.3143,-543.9156 624.1572,-547.4578 624.1572,-554.5422 619.3143,-558.0844 619.3143,-558.0844 463.6857,-671.9156 463.6857,-671.9156 458.8428,-675.4578 449.1572,-675.4578 444.3143,-671.9156"/>
<text text-anchor="middle" x="454" y="-599.8" font-family="Times,serif" font-size="14.00" fill="#000000">Check if the first</text>
<text text-anchor="middle" x="454" y="-584.8" font-family="Times,serif" font-size="14.00" fill="#000000">name field contains numbers</text>
<text text-anchor="middle" x="454" y="-569.8" font-family="Times,serif" font-size="14.00" fill="#000000">or special characters. &#45;</text>
<text text-anchor="middle" x="454" y="-554.8" font-family="Times,serif" font-size="14.00" fill="#000000">If it does, display</text>
<text text-anchor="middle" x="454" y="-539.8" font-family="Times,serif" font-size="14.00" fill="#000000">error message &quot;No numbers</text>
<text text-anchor="middle" x="454" y="-524.8" font-family="Times,serif" font-size="14.00" fill="#000000">or special characters are</text>
<text text-anchor="middle" x="454" y="-509.8" font-family="Times,serif" font-size="14.00" fill="#000000">allowed&quot; and go back</text>
<text text-anchor="middle" x="454" y="-494.8" font-family="Times,serif" font-size="14.00" fill="#000000">to step 14.</text>
</g>
<!-- 14&#45;&gt;15 -->
<g id="edge15" class="edge">
<title>14&#45;&gt;15</title>
<path fill="none" stroke="#677d92" stroke-width="1.5" d="M642.8181,-714.7617C618.8143,-693.9432 579.0114,-659.4223 542.1232,-627.4291"/>
<polygon fill="#677d92" stroke="#677d92" stroke-width="1.5" points="544.1503,-624.5543 534.3026,-620.6463 539.5639,-629.8425 544.1503,-624.5543"/>
</g>
<!-- 23 -->
<g id="node23" class="node">
<title>23</title>
<path fill="#359fff" stroke="#000000" d="M863,-577.5C863,-577.5 697,-577.5 697,-577.5 691,-577.5 685,-571.5 685,-565.5 685,-565.5 685,-536.5 685,-536.5 685,-530.5 691,-524.5 697,-524.5 697,-524.5 863,-524.5 863,-524.5 869,-524.5 875,-530.5 875,-536.5 875,-536.5 875,-565.5 875,-565.5 875,-571.5 869,-577.5 863,-577.5"/>
<text text-anchor="middle" x="780" y="-562.3" font-family="Times,serif" font-size="14.00" fill="#ffffff">User encounters error messages</text>
<text text-anchor="middle" x="780" y="-547.3" font-family="Times,serif" font-size="14.00" fill="#ffffff">or the form does</text>
<text text-anchor="middle" x="780" y="-532.3" font-family="Times,serif" font-size="14.00" fill="#ffffff">not submit successfully.</text>
</g>
<!-- 14&#45;&gt;23 -->
<g id="edge16" class="edge">
<title>14&#45;&gt;23</title>
<path fill="none" stroke="#677d92" stroke-width="1.5" d="M677.0897,-714.7617C696.2024,-684.3475 733.6932,-624.6882 757.7602,-586.3904"/>
<polygon fill="#677d92" stroke="#677d92" stroke-width="1.5" points="760.9158,-587.9467 763.2732,-577.6174 754.989,-584.2221 760.9158,-587.9467"/>
</g>
<!-- 16 -->
<g id="node16" class="node">
<title>16</title>
<path fill="#ffc32c" stroke="#000000" d="M485.0428,-380.3026C485.0428,-380.3026 336.9572,-280.6974 336.9572,-280.6974 331.9786,-277.3487 331.9786,-270.6513 336.9572,-267.3026 336.9572,-267.3026 485.0428,-167.6974 485.0428,-167.6974 490.0214,-164.3487 499.9786,-164.3487 504.9572,-167.6974 504.9572,-167.6974 653.0428,-267.3026 653.0428,-267.3026 658.0214,-270.6513 658.0214,-277.3487 653.0428,-280.6974 653.0428,-280.6974 504.9572,-380.3026 504.9572,-380.3026 499.9786,-383.6513 490.0214,-383.6513 485.0428,-380.3026"/>
<text text-anchor="middle" x="495" y="-315.3" font-family="Times,serif" font-size="14.00" fill="#000000">Check if the email</text>
<text text-anchor="middle" x="495" y="-300.3" font-family="Times,serif" font-size="14.00" fill="#000000">address is valid. &#45;</text>
<text text-anchor="middle" x="495" y="-285.3" font-family="Times,serif" font-size="14.00" fill="#000000">If not valid, display</text>
<text text-anchor="middle" x="495" y="-270.3" font-family="Times,serif" font-size="14.00" fill="#000000">error message &quot;Please enter</text>
<text text-anchor="middle" x="495" y="-255.3" font-family="Times,serif" font-size="14.00" fill="#000000">a valid email address&quot;</text>
<text text-anchor="middle" x="495" y="-240.3" font-family="Times,serif" font-size="14.00" fill="#000000">and go back to</text>
<text text-anchor="middle" x="495" y="-225.3" font-family="Times,serif" font-size="14.00" fill="#000000">step 14.</text>
</g>
<!-- 15&#45;&gt;16 -->
<g id="edge17" class="edge">
<title>15&#45;&gt;16</title>
<path fill="none" stroke="#677d92" stroke-width="1.5" d="M471.1501,-435.132C473.4902,-419.3223 475.8901,-403.1082 478.2234,-387.344"/>
<polygon fill="#677d92" stroke="#677d92" stroke-width="1.5" points="481.7439,-387.4632 479.7459,-377.0584 474.8193,-386.4382 481.7439,-387.4632"/>
</g>
<!-- 16&#45;&gt;14 -->
<g id="edge18" class="edge">
<title>16&#45;&gt;14</title>
<path fill="none" stroke="#677d92" stroke-width="1.5" d="M572.3402,-335.4519C597.6316,-359.8705 623.0449,-390.0199 638,-423 681.3154,-518.5223 674.5709,-647.3531 668.6996,-704.5427"/>
<polygon fill="#677d92" stroke="#677d92" stroke-width="1.5" points="665.1991,-704.3576 667.589,-714.6793 672.1574,-705.1201 665.1991,-704.3576"/>
</g>
<!-- 17 -->
<g id="node17" class="node">
<title>17</title>
<path fill="#359fff" stroke="#000000" d="M551.5,-125C551.5,-125 438.5,-125 438.5,-125 432.5,-125 426.5,-119 426.5,-113 426.5,-113 426.5,-84 426.5,-84 426.5,-78 432.5,-72 438.5,-72 438.5,-72 551.5,-72 551.5,-72 557.5,-72 563.5,-78 563.5,-84 563.5,-84 563.5,-113 563.5,-113 563.5,-119 557.5,-125 551.5,-125"/>
<text text-anchor="middle" x="495" y="-109.8" font-family="Times,serif" font-size="14.00" fill="#ffffff">User selects a country</text>
<text text-anchor="middle" x="495" y="-94.8" font-family="Times,serif" font-size="14.00" fill="#ffffff">flag for their phone</text>
<text text-anchor="middle" x="495" y="-79.8" font-family="Times,serif" font-size="14.00" fill="#ffffff">number.</text>
</g>
<!-- 16&#45;&gt;17 -->
<g id="edge19" class="edge">
<title>16&#45;&gt;17</title>
<path fill="none" stroke="#677d92" stroke-width="1.5" d="M495,-160.8689C495,-151.8403 495,-143.2039 495,-135.3894"/>
<polygon fill="#677d92" stroke="#677d92" stroke-width="1.5" points="498.5001,-135.2829 495,-125.283 491.5001,-135.283 498.5001,-135.2829"/>
</g>
<!-- 18 -->
<g id="node18" class="node">
<title>18</title>
<path fill="#359fff" stroke="#000000" d="M578.5,-36C578.5,-36 411.5,-36 411.5,-36 405.5,-36 399.5,-30 399.5,-24 399.5,-24 399.5,-12 399.5,-12 399.5,-6 405.5,0 411.5,0 411.5,0 578.5,0 578.5,0 584.5,0 590.5,-6 590.5,-12 590.5,-12 590.5,-24 590.5,-24 590.5,-30 584.5,-36 578.5,-36"/>
<text text-anchor="middle" x="495" y="-14.3" font-family="Times,serif" font-size="14.00" fill="#ffffff">Form is successfully submitted.</text>
</g>
<!-- 17&#45;&gt;18 -->
<g id="edge20" class="edge">
<title>17&#45;&gt;18</title>
<path fill="none" stroke="#677d92" stroke-width="1.5" d="M495,-71.6947C495,-63.462 495,-54.3814 495,-46.0667"/>
<polygon fill="#677d92" stroke="#677d92" stroke-width="1.5" points="498.5001,-46.0657 495,-36.0658 491.5001,-46.0658 498.5001,-46.0657"/>
</g>
<!-- 19 -->
<g id="node19" class="node">
<title>19</title>
<path fill="#2d4b5a" stroke="#000000" d="M579,-1644C579,-1644 549,-1644 549,-1644 543,-1644 537,-1638 537,-1632 537,-1632 537,-1620 537,-1620 537,-1614 543,-1608 549,-1608 549,-1608 579,-1608 579,-1608 585,-1608 591,-1614 591,-1620 591,-1620 591,-1632 591,-1632 591,-1638 585,-1644 579,-1644"/>
<text text-anchor="middle" x="564" y="-1622.3" font-family="Times,serif" font-size="14.00" fill="#ffffff">End</text>
</g>
<!-- 20 -->
<g id="node20" class="node">
<title>20</title>
<path fill="#359fff" stroke="#000000" d="M763,-1291C763,-1291 585,-1291 585,-1291 579,-1291 573,-1285 573,-1279 573,-1279 573,-1265 573,-1265 573,-1259 579,-1253 585,-1253 585,-1253 763,-1253 763,-1253 769,-1253 775,-1259 775,-1265 775,-1265 775,-1279 775,-1279 775,-1285 769,-1291 763,-1291"/>
<text text-anchor="middle" x="674" y="-1275.8" font-family="Times,serif" font-size="14.00" fill="#ffffff">Display error messages indicating</text>
<text text-anchor="middle" x="674" y="-1260.8" font-family="Times,serif" font-size="14.00" fill="#ffffff">what went wrong.</text>
</g>
<!-- 21 -->
<g id="node21" class="node">
<title>21</title>
<path fill="#359fff" stroke="#000000" d="M736,-1137C736,-1137 612,-1137 612,-1137 606,-1137 600,-1131 600,-1125 600,-1125 600,-1113 600,-1113 600,-1107 606,-1101 612,-1101 612,-1101 736,-1101 736,-1101 742,-1101 748,-1107 748,-1113 748,-1113 748,-1125 748,-1125 748,-1131 742,-1137 736,-1137"/>
<text text-anchor="middle" x="674" y="-1115.3" font-family="Times,serif" font-size="14.00" fill="#ffffff">User corrects the errors.</text>
</g>
<!-- 20&#45;&gt;21 -->
<g id="edge21" class="edge">
<title>20&#45;&gt;21</title>
<path fill="none" stroke="#677d92" stroke-width="1.5" d="M674,-1252.9318C674,-1226.4185 674,-1178.2159 674,-1147.445"/>
<polygon fill="#677d92" stroke="#677d92" stroke-width="1.5" points="677.5001,-1147.352 674,-1137.352 670.5001,-1147.3521 677.5001,-1147.352"/>
</g>
<!-- 22 -->
<g id="node22" class="node">
<title>22</title>
<path fill="#359fff" stroke="#000000" d="M721.5,-913.5C721.5,-913.5 626.5,-913.5 626.5,-913.5 620.5,-913.5 614.5,-907.5 614.5,-901.5 614.5,-901.5 614.5,-872.5 614.5,-872.5 614.5,-866.5 620.5,-860.5 626.5,-860.5 626.5,-860.5 721.5,-860.5 721.5,-860.5 727.5,-860.5 733.5,-866.5 733.5,-872.5 733.5,-872.5 733.5,-901.5 733.5,-901.5 733.5,-907.5 727.5,-913.5 721.5,-913.5"/>
<text text-anchor="middle" x="674" y="-898.3" font-family="Times,serif" font-size="14.00" fill="#ffffff">User tries again by</text>
<text text-anchor="middle" x="674" y="-883.3" font-family="Times,serif" font-size="14.00" fill="#ffffff">going back to step</text>
<text text-anchor="middle" x="674" y="-868.3" font-family="Times,serif" font-size="14.00" fill="#ffffff">14.</text>
</g>
<!-- 21&#45;&gt;22 -->
<g id="edge22" class="edge">
<title>21&#45;&gt;22</title>
<path fill="none" stroke="#677d92" stroke-width="1.5" d="M674,-1100.7953C674,-1062.7996 674,-974.4102 674,-923.9851"/>
<polygon fill="#677d92" stroke="#677d92" stroke-width="1.5" points="677.5001,-923.8329 674,-913.8329 670.5001,-923.8329 677.5001,-923.8329"/>
</g>
<!-- 22&#45;&gt;14 -->
<g id="edge23" class="edge">
<title>22&#45;&gt;14</title>
<path fill="none" stroke="#677d92" stroke-width="1.5" d="M672.4323,-860.3494C670.8336,-833.171 668.3602,-791.124 666.7114,-763.0936"/>
<polygon fill="#677d92" stroke="#677d92" stroke-width="1.5" points="670.2046,-762.8743 666.1234,-753.0971 663.2167,-763.2854 670.2046,-762.8743"/>
</g>
<!-- 24 -->
<g id="node24" class="node">
<title>24</title>
<path fill="#359fff" stroke="#000000" d="M853,-292C853,-292 725,-292 725,-292 719,-292 713,-286 713,-280 713,-280 713,-268 713,-268 713,-262 719,-256 725,-256 725,-256 853,-256 853,-256 859,-256 865,-262 865,-268 865,-268 865,-280 865,-280 865,-286 859,-292 853,-292"/>
<text text-anchor="middle" x="789" y="-270.3" font-family="Times,serif" font-size="14.00" fill="#ffffff">User checks their inputs.</text>
</g>
<!-- 23&#45;&gt;24 -->
<g id="edge24" class="edge">
<title>23&#45;&gt;24</title>
<path fill="none" stroke="#677d92" stroke-width="1.5" d="M780.863,-524.4401C782.5629,-472.1195 786.3311,-356.1416 788.0779,-302.3807"/>
<polygon fill="#677d92" stroke="#677d92" stroke-width="1.5" points="791.5821,-302.3049 788.4088,-292.1965 784.5858,-302.0775 791.5821,-302.3049"/>
</g>
<!-- 25 -->
<g id="node25" class="node">
<title>25</title>
<path fill="#359fff" stroke="#000000" d="M897.5,-125C897.5,-125 802.5,-125 802.5,-125 796.5,-125 790.5,-119 790.5,-113 790.5,-113 790.5,-84 790.5,-84 790.5,-78 796.5,-72 802.5,-72 802.5,-72 897.5,-72 897.5,-72 903.5,-72 909.5,-78 909.5,-84 909.5,-84 909.5,-113 909.5,-113 909.5,-119 903.5,-125 897.5,-125"/>
<text text-anchor="middle" x="850" y="-109.8" font-family="Times,serif" font-size="14.00" fill="#ffffff">User tries again by</text>
<text text-anchor="middle" x="850" y="-94.8" font-family="Times,serif" font-size="14.00" fill="#ffffff">going back to step</text>
<text text-anchor="middle" x="850" y="-79.8" font-family="Times,serif" font-size="14.00" fill="#ffffff">14.</text>
</g>
<!-- 24&#45;&gt;25 -->
<g id="edge25" class="edge">
<title>24&#45;&gt;25</title>
<path fill="none" stroke="#677d92" stroke-width="1.5" d="M795.2983,-255.8794C805.1759,-227.461 824.5052,-171.8498 837.3381,-134.9288"/>
<polygon fill="#677d92" stroke="#677d92" stroke-width="1.5" points="840.795,-135.6437 840.7722,-125.0489 834.183,-133.3455 840.795,-135.6437"/>
</g>
<!-- 25&#45;&gt;14 -->
<g id="edge26" class="edge">
<title>25&#45;&gt;14</title>
<path fill="none" stroke="#677d92" stroke-width="1.5" d="M862.6086,-125.2299C902.7751,-214.7293 1017.484,-507.8475 884,-679 868.5461,-698.815 813.6467,-712.5772 762.6857,-721.3795"/>
<polygon fill="#677d92" stroke="#677d92" stroke-width="1.5" points="761.844,-717.9716 752.5588,-723.0742 762.9994,-724.8756 761.844,-717.9716"/>
</g>
<!-- 26 -->
<g id="node26" class="node">
<title>26</title>
<path fill="#2d4b5a" stroke="#000000" d="M338,-752C338,-752 308,-752 308,-752 302,-752 296,-746 296,-740 296,-740 296,-728 296,-728 296,-722 302,-716 308,-716 308,-716 338,-716 338,-716 344,-716 350,-722 350,-728 350,-728 350,-740 350,-740 350,-746 344,-752 338,-752"/>
<text text-anchor="middle" x="323" y="-730.3" font-family="Times,serif" font-size="14.00" fill="#ffffff">End</text>
</g>
<!-- 26&#45;&gt;8 -->
<g id="edge27" class="edge">
<title>26&#45;&gt;8</title>
<path fill="none" stroke="#677d92" stroke-width="1.5" d="M302.1459,-715.9629C291.4714,-705.9063 278.8891,-692.6753 270,-679 249.3428,-647.2202 234.3744,-605.9021 225.9427,-578.9305"/>
<polygon fill="#677d92" stroke="#677d92" stroke-width="1.5" points="229.1839,-577.5578 222.9325,-569.0038 222.4851,-579.5892 229.1839,-577.5578"/>
</g>
</g>
</svg>


</svg>
