<?xml version="1.0" encoding="UTF-8" standalone="no"?>
<!DOCTYPE svg PUBLIC "-//W3C//DTD SVG 1.1//EN"
 "http://www.w3.org/Graphics/SVG/1.1/DTD/svg11.dtd">
<!-- Generated by graphviz version 2.50.0 (0)
 -->
<!-- Pages: 1 -->
<svg width="842pt" height="1238pt"
 viewBox="0.00 0.00 842.00 1238.16" xmlns="http://www.w3.org/2000/svg" xmlns:xlink="http://www.w3.org/1999/xlink">
<g id="graph0" class="graph" transform="scale(1 1) rotate(0) translate(4 1234.16)">
<!-- Start -->
<g id="node1" class="node">
<title>Start</title>
<ellipse fill="none" stroke="black" cx="417" cy="-1181.37" rx="306.77" ry="48.58"/>
<text text-anchor="middle" x="417" y="-1200.67" font-family="Times,serif" font-size="14.00">Start</text>
<text text-anchor="middle" x="417" y="-1169.67" font-family="Times,serif" font-size="14.00">When you visit the &quot;Forgot Password&quot; page,</text>
<text text-anchor="middle" x="417" y="-1154.67" font-family="Times,serif" font-size="14.00">something happens in the background to get things ready.</text>
</g>
<!-- Checking Loading -->
<g id="node2" class="node">
<title>Checking Loading</title>
<polygon fill="none" stroke="black" points="618.5,-1096.58 215.5,-1096.58 215.5,-1027.58 618.5,-1027.58 618.5,-1096.58"/>
<text text-anchor="middle" x="417" y="-1081.38" font-family="Times,serif" font-size="14.00">Checking Loading</text>
<text text-anchor="middle" x="417" y="-1050.38" font-family="Times,serif" font-size="14.00">The system checks if it&#39;s busy doing something.</text>
<text text-anchor="middle" x="417" y="-1035.38" font-family="Times,serif" font-size="14.00">If it is, you might see a message saying &quot;Please wait.&quot;</text>
</g>
<!-- Start&#45;&gt;Checking Loading -->
<g id="edge1" class="edge">
<title>Start&#45;&gt;Checking Loading</title>
<path fill="none" stroke="black" d="M417,-1132.33C417,-1123.96 417,-1115.3 417,-1107.06"/>
<polygon fill="black" stroke="black" points="420.5,-1106.89 417,-1096.89 413.5,-1106.89 420.5,-1106.89"/>
</g>
<!-- Showing Alerts -->
<g id="node3" class="node">
<title>Showing Alerts</title>
<polygon fill="none" stroke="black" points="705.5,-991.58 128.5,-991.58 128.5,-922.58 705.5,-922.58 705.5,-991.58"/>
<text text-anchor="middle" x="417" y="-976.38" font-family="Times,serif" font-size="14.00">Showing Alerts</text>
<text text-anchor="middle" x="417" y="-945.38" font-family="Times,serif" font-size="14.00">If there&#39;s an important message to show you,</text>
<text text-anchor="middle" x="417" y="-930.38" font-family="Times,serif" font-size="14.00">like &quot;Success!&quot; or &quot;Something went wrong,&quot; it will be displayed on the screen.</text>
</g>
<!-- Checking Loading&#45;&gt;Showing Alerts -->
<g id="edge2" class="edge">
<title>Checking Loading&#45;&gt;Showing Alerts</title>
<path fill="none" stroke="black" d="M417,-1027.35C417,-1019.26 417,-1010.5 417,-1002.02"/>
<polygon fill="black" stroke="black" points="420.5,-1001.88 417,-991.88 413.5,-1001.88 420.5,-1001.88"/>
</g>
<!-- Enter Your Email -->
<g id="node4" class="node">
<title>Enter Your Email</title>
<polygon fill="none" stroke="black" points="595,-886.58 239,-886.58 239,-832.58 595,-832.58 595,-886.58"/>
<text text-anchor="middle" x="417" y="-871.38" font-family="Times,serif" font-size="14.00">Enter Your Email</text>
<text text-anchor="middle" x="417" y="-840.38" font-family="Times,serif" font-size="14.00">You type in your email address in a special box.</text>
</g>
<!-- Showing Alerts&#45;&gt;Enter Your Email -->
<g id="edge3" class="edge">
<title>Showing Alerts&#45;&gt;Enter Your Email</title>
<path fill="none" stroke="black" d="M417,-922.41C417,-914.18 417,-905.34 417,-896.98"/>
<polygon fill="black" stroke="black" points="420.5,-896.75 417,-886.75 413.5,-896.75 420.5,-896.75"/>
</g>
<!-- Click Submit -->
<g id="node5" class="node">
<title>Click Submit</title>
<polygon fill="none" stroke="black" points="417,-796.58 0,-727.58 417,-658.58 834,-727.58 417,-796.58"/>
<text text-anchor="middle" x="417" y="-746.88" font-family="Times,serif" font-size="14.00">Click Submit</text>
<text text-anchor="middle" x="417" y="-715.88" font-family="Times,serif" font-size="14.00">You click a button that says &quot;Submit&quot;</text>
<text text-anchor="middle" x="417" y="-700.88" font-family="Times,serif" font-size="14.00">to let the system know you&#39;re done entering your email.</text>
</g>
<!-- Enter Your Email&#45;&gt;Click Submit -->
<g id="edge4" class="edge">
<title>Enter Your Email&#45;&gt;Click Submit</title>
<path fill="none" stroke="black" d="M417,-832.27C417,-824.73 417,-816.09 417,-807.08"/>
<polygon fill="black" stroke="black" points="420.5,-806.8 417,-796.8 413.5,-806.8 420.5,-806.8"/>
</g>
<!-- Sending a Request -->
<g id="node6" class="node">
<title>Sending a Request</title>
<polygon fill="none" stroke="black" points="622.5,-622.58 211.5,-622.58 211.5,-553.58 622.5,-553.58 622.5,-622.58"/>
<text text-anchor="middle" x="417" y="-607.38" font-family="Times,serif" font-size="14.00">Sending a Request</text>
<text text-anchor="middle" x="417" y="-576.38" font-family="Times,serif" font-size="14.00">Behind the scenes, your email is sent to a special place</text>
<text text-anchor="middle" x="417" y="-561.38" font-family="Times,serif" font-size="14.00">that handles forgotten passwords.</text>
</g>
<!-- Click Submit&#45;&gt;Sending a Request -->
<g id="edge5" class="edge">
<title>Click Submit&#45;&gt;Sending a Request</title>
<path fill="none" stroke="black" d="M417,-658.23C417,-649.51 417,-640.79 417,-632.61"/>
<polygon fill="black" stroke="black" points="420.5,-632.59 417,-622.59 413.5,-632.59 420.5,-632.59"/>
</g>
<!-- Processing -->
<g id="node7" class="node">
<title>Processing</title>
<polygon fill="none" stroke="black" points="680.5,-517.58 153.5,-517.58 153.5,-463.58 680.5,-463.58 680.5,-517.58"/>
<text text-anchor="middle" x="417" y="-502.38" font-family="Times,serif" font-size="14.00">Processing</text>
<text text-anchor="middle" x="417" y="-471.38" font-family="Times,serif" font-size="14.00">The special place processes your email and does some important tasks.</text>
</g>
<!-- Sending a Request&#45;&gt;Processing -->
<g id="edge6" class="edge">
<title>Sending a Request&#45;&gt;Processing</title>
<path fill="none" stroke="black" d="M417,-553.41C417,-545.18 417,-536.34 417,-527.98"/>
<polygon fill="black" stroke="black" points="420.5,-527.75 417,-517.75 413.5,-527.75 420.5,-527.75"/>
</g>
<!-- Getting Results -->
<g id="node8" class="node">
<title>Getting Results</title>
<polygon fill="none" stroke="black" points="723,-427.58 111,-427.58 111,-358.58 723,-358.58 723,-427.58"/>
<text text-anchor="middle" x="417" y="-412.38" font-family="Times,serif" font-size="14.00">Getting Results</text>
<text text-anchor="middle" x="417" y="-381.38" font-family="Times,serif" font-size="14.00">After a little bit, the special place gives an answer.</text>
<text text-anchor="middle" x="417" y="-366.38" font-family="Times,serif" font-size="14.00">If everything&#39;s good, you might see a message that says &quot;We&#39;ve sent you an email.&quot;</text>
</g>
<!-- Processing&#45;&gt;Getting Results -->
<g id="edge7" class="edge">
<title>Processing&#45;&gt;Getting Results</title>
<path fill="none" stroke="black" d="M417,-463.48C417,-455.55 417,-446.59 417,-437.82"/>
<polygon fill="black" stroke="black" points="420.5,-437.68 417,-427.68 413.5,-437.68 420.5,-437.68"/>
</g>
<!-- Checking the Answer -->
<g id="node9" class="node">
<title>Checking the Answer</title>
<polygon fill="none" stroke="black" points="616,-322.58 218,-322.58 218,-238.58 616,-238.58 616,-322.58"/>
<text text-anchor="middle" x="417" y="-307.38" font-family="Times,serif" font-size="14.00">Checking the Answer</text>
<text text-anchor="middle" x="417" y="-276.38" font-family="Times,serif" font-size="14.00">The system checks what the special place said.</text>
<text text-anchor="middle" x="417" y="-261.38" font-family="Times,serif" font-size="14.00">If it&#39;s good news, you&#39;ll see a green success message.</text>
<text text-anchor="middle" x="417" y="-246.38" font-family="Times,serif" font-size="14.00">If something&#39;s not right, you&#39;ll see a red warning.</text>
</g>
<!-- Getting Results&#45;&gt;Checking the Answer -->
<g id="edge8" class="edge">
<title>Getting Results&#45;&gt;Checking the Answer</title>
<path fill="none" stroke="black" d="M417,-358.33C417,-350.3 417,-341.55 417,-332.93"/>
<polygon fill="black" stroke="black" points="420.5,-332.92 417,-322.92 413.5,-332.92 420.5,-332.92"/>
</g>
<!-- Finishing Up -->
<g id="node10" class="node">
<title>Finishing Up</title>
<polygon fill="none" stroke="black" points="617.5,-202.58 216.5,-202.58 216.5,-133.58 617.5,-133.58 617.5,-202.58"/>
<text text-anchor="middle" x="417" y="-187.38" font-family="Times,serif" font-size="14.00">Finishing Up</text>
<text text-anchor="middle" x="417" y="-156.38" font-family="Times,serif" font-size="14.00">No matter what happened, the system finishes its job</text>
<text text-anchor="middle" x="417" y="-141.38" font-family="Times,serif" font-size="14.00">and stops any spinning/loading animations.</text>
</g>
<!-- Checking the Answer&#45;&gt;Finishing Up -->
<g id="edge9" class="edge">
<title>Checking the Answer&#45;&gt;Finishing Up</title>
<path fill="none" stroke="black" d="M417,-238.43C417,-230.06 417,-221.22 417,-212.76"/>
<polygon fill="black" stroke="black" points="420.5,-212.68 417,-202.68 413.5,-212.68 420.5,-212.68"/>
</g>
<!-- End -->
<g id="node11" class="node">
<title>End</title>
<ellipse fill="none" stroke="black" cx="417" cy="-48.79" rx="214.92" ry="48.58"/>
<text text-anchor="middle" x="417" y="-68.09" font-family="Times,serif" font-size="14.00">End</text>
<text text-anchor="middle" x="417" y="-37.09" font-family="Times,serif" font-size="14.00">That&#39;s it! The whole process is done,</text>
<text text-anchor="middle" x="417" y="-22.09" font-family="Times,serif" font-size="14.00">and you can continue using the website.</text>
</g>
<!-- Finishing Up&#45;&gt;End -->
<g id="edge10" class="edge">
<title>Finishing Up&#45;&gt;End</title>
<path fill="none" stroke="black" d="M417,-133.47C417,-125.49 417,-116.75 417,-108.02"/>
<polygon fill="black" stroke="black" points="420.5,-107.83 417,-97.83 413.5,-107.83 420.5,-107.83"/>
</g>
</g>
</svg>
