<?xml version="1.0" encoding="UTF-8" standalone="no"?>
<!DOCTYPE svg PUBLIC "-//W3C//DTD SVG 1.1//EN"
 "http://www.w3.org/Graphics/SVG/1.1/DTD/svg11.dtd">
<!-- Generated by graphviz version 2.50.0 (0)
 -->
<!-- Pages: 1 -->
<svg width="1009pt" height="1703pt"
 viewBox="0.00 0.00 1009.26 1702.95" xmlns="http://www.w3.org/2000/svg" xmlns:xlink="http://www.w3.org/1999/xlink">
<g id="graph0" class="graph" transform="scale(1 1) rotate(0) translate(4 1698.95)">
<!-- Starting Point -->
<g id="node1" class="node">
<title>Starting Point</title>
<ellipse fill="none" stroke="black" cx="500.63" cy="-1656.76" rx="500.76" ry="38.37"/>
<text text-anchor="middle" x="500.63" y="-1668.56" font-family="Times,serif" font-size="14.00">Starting Point</text>
<text text-anchor="middle" x="500.63" y="-1637.56" font-family="Times,serif" font-size="14.00">Imagine you&#39;re on a website&#39;s page called &quot;Job Create,&quot; where people can post job opportunities.</text>
</g>
<!-- Getting Ready -->
<g id="node2" class="node">
<title>Getting Ready</title>
<polygon fill="none" stroke="black" points="804.13,-1582.58 197.13,-1582.58 197.13,-1513.58 804.13,-1513.58 804.13,-1582.58"/>
<text text-anchor="middle" x="500.63" y="-1567.38" font-family="Times,serif" font-size="14.00">Getting Ready</text>
<text text-anchor="middle" x="500.63" y="-1536.38" font-family="Times,serif" font-size="14.00">When you arrive on this page, the website prepares everything behind the scenes,</text>
<text text-anchor="middle" x="500.63" y="-1521.38" font-family="Times,serif" font-size="14.00">like getting your information and the job details ready.</text>
</g>
<!-- Starting Point&#45;&gt;Getting Ready -->
<g id="edge1" class="edge">
<title>Starting Point&#45;&gt;Getting Ready</title>
<path fill="none" stroke="black" d="M500.63,-1618.45C500.63,-1610.16 500.63,-1601.31 500.63,-1592.79"/>
<polygon fill="black" stroke="black" points="504.13,-1592.63 500.63,-1582.63 497.13,-1592.63 504.13,-1592.63"/>
</g>
<!-- Getting Set -->
<g id="node3" class="node">
<title>Getting Set</title>
<polygon fill="none" stroke="black" points="747.13,-1477.58 254.13,-1477.58 254.13,-1408.58 747.13,-1408.58 747.13,-1477.58"/>
<text text-anchor="middle" x="500.63" y="-1462.38" font-family="Times,serif" font-size="14.00">Getting Set</text>
<text text-anchor="middle" x="500.63" y="-1431.38" font-family="Times,serif" font-size="14.00">As you use the page, like clicking buttons or typing in information,</text>
<text text-anchor="middle" x="500.63" y="-1416.38" font-family="Times,serif" font-size="14.00">the website responds to your actions.</text>
</g>
<!-- Getting Ready&#45;&gt;Getting Set -->
<g id="edge2" class="edge">
<title>Getting Ready&#45;&gt;Getting Set</title>
<path fill="none" stroke="black" d="M500.63,-1513.35C500.63,-1505.26 500.63,-1496.5 500.63,-1488.02"/>
<polygon fill="black" stroke="black" points="504.13,-1487.88 500.63,-1477.88 497.13,-1487.88 504.13,-1487.88"/>
</g>
<!-- Checking Your Status -->
<g id="node4" class="node">
<title>Checking Your Status</title>
<polygon fill="none" stroke="black" points="778.63,-1372.58 222.63,-1372.58 222.63,-1303.58 778.63,-1303.58 778.63,-1372.58"/>
<text text-anchor="middle" x="500.63" y="-1357.38" font-family="Times,serif" font-size="14.00">Checking Your Status</text>
<text text-anchor="middle" x="500.63" y="-1326.38" font-family="Times,serif" font-size="14.00">When you first arrive, the website checks if you&#39;re already signed in or not.</text>
<text text-anchor="middle" x="500.63" y="-1311.38" font-family="Times,serif" font-size="14.00">If you are, it gets some extra information about your account.</text>
</g>
<!-- Getting Set&#45;&gt;Checking Your Status -->
<g id="edge3" class="edge">
<title>Getting Set&#45;&gt;Checking Your Status</title>
<path fill="none" stroke="black" d="M500.63,-1408.35C500.63,-1400.26 500.63,-1391.5 500.63,-1383.02"/>
<polygon fill="black" stroke="black" points="504.13,-1382.88 500.63,-1372.88 497.13,-1382.88 504.13,-1382.88"/>
</g>
<!-- Preparing Payment -->
<g id="node5" class="node">
<title>Preparing Payment</title>
<polygon fill="none" stroke="black" points="844.13,-1267.58 157.13,-1267.58 157.13,-1198.58 844.13,-1198.58 844.13,-1267.58"/>
<text text-anchor="middle" x="500.63" y="-1252.38" font-family="Times,serif" font-size="14.00">Preparing Payment</text>
<text text-anchor="middle" x="500.63" y="-1221.38" font-family="Times,serif" font-size="14.00">Depending on whether you&#39;re signed in or not, the website prepares a way to make payments</text>
<text text-anchor="middle" x="500.63" y="-1206.38" font-family="Times,serif" font-size="14.00">using a secure service called Stripe.</text>
</g>
<!-- Checking Your Status&#45;&gt;Preparing Payment -->
<g id="edge4" class="edge">
<title>Checking Your Status&#45;&gt;Preparing Payment</title>
<path fill="none" stroke="black" d="M500.63,-1303.35C500.63,-1295.26 500.63,-1286.5 500.63,-1278.02"/>
<polygon fill="black" stroke="black" points="504.13,-1277.88 500.63,-1267.88 497.13,-1277.88 504.13,-1277.88"/>
</g>
<!-- Getting Job Details -->
<g id="node6" class="node">
<title>Getting Job Details</title>
<polygon fill="none" stroke="black" points="801.13,-1162.58 200.13,-1162.58 200.13,-1093.58 801.13,-1093.58 801.13,-1162.58"/>
<text text-anchor="middle" x="500.63" y="-1147.38" font-family="Times,serif" font-size="14.00">Getting Job Details</text>
<text text-anchor="middle" x="500.63" y="-1116.38" font-family="Times,serif" font-size="14.00">The website looks at the web address (URL) to figure out if there&#39;s a job ID there.</text>
<text text-anchor="middle" x="500.63" y="-1101.38" font-family="Times,serif" font-size="14.00">This ID helps it know which job you&#39;re dealing with.</text>
</g>
<!-- Preparing Payment&#45;&gt;Getting Job Details -->
<g id="edge5" class="edge">
<title>Preparing Payment&#45;&gt;Getting Job Details</title>
<path fill="none" stroke="black" d="M500.63,-1198.35C500.63,-1190.26 500.63,-1181.5 500.63,-1173.02"/>
<polygon fill="black" stroke="black" points="504.13,-1172.88 500.63,-1162.88 497.13,-1172.88 504.13,-1172.88"/>
</g>
<!-- Making Choices -->
<g id="node7" class="node">
<title>Making Choices</title>
<polygon fill="none" stroke="black" points="848.13,-1057.58 153.13,-1057.58 153.13,-1003.58 848.13,-1003.58 848.13,-1057.58"/>
<text text-anchor="middle" x="500.63" y="-1042.38" font-family="Times,serif" font-size="14.00">Making Choices</text>
<text text-anchor="middle" x="500.63" y="-1011.38" font-family="Times,serif" font-size="14.00">You interact with the website by making choices like selecting options or entering information.</text>
</g>
<!-- Getting Job Details&#45;&gt;Making Choices -->
<g id="edge6" class="edge">
<title>Getting Job Details&#45;&gt;Making Choices</title>
<path fill="none" stroke="black" d="M500.63,-1093.41C500.63,-1085.18 500.63,-1076.34 500.63,-1067.98"/>
<polygon fill="black" stroke="black" points="504.13,-1067.75 500.63,-1057.75 497.13,-1067.75 504.13,-1067.75"/>
</g>
<!-- Calculating Wait Time -->
<g id="node8" class="node">
<title>Calculating Wait Time</title>
<polygon fill="none" stroke="black" points="797.13,-967.58 204.13,-967.58 204.13,-898.58 797.13,-898.58 797.13,-967.58"/>
<text text-anchor="middle" x="500.63" y="-952.38" font-family="Times,serif" font-size="14.00">Calculating Wait Time</text>
<text text-anchor="middle" x="500.63" y="-921.38" font-family="Times,serif" font-size="14.00">The website uses a special function to estimate how long you might have to wait</text>
<text text-anchor="middle" x="500.63" y="-906.38" font-family="Times,serif" font-size="14.00">for a technician to help you based on their availability.</text>
</g>
<!-- Making Choices&#45;&gt;Calculating Wait Time -->
<g id="edge7" class="edge">
<title>Making Choices&#45;&gt;Calculating Wait Time</title>
<path fill="none" stroke="black" d="M500.63,-1003.48C500.63,-995.55 500.63,-986.59 500.63,-977.82"/>
<polygon fill="black" stroke="black" points="504.13,-977.68 500.63,-967.68 497.13,-977.68 504.13,-977.68"/>
</g>
<!-- Finding Technicians -->
<g id="node9" class="node">
<title>Finding Technicians</title>
<polygon fill="none" stroke="black" points="879.13,-862.58 122.13,-862.58 122.13,-808.58 879.13,-808.58 879.13,-862.58"/>
<text text-anchor="middle" x="500.63" y="-847.38" font-family="Times,serif" font-size="14.00">Finding Technicians</text>
<text text-anchor="middle" x="500.63" y="-816.38" font-family="Times,serif" font-size="14.00">The website tries to find technicians who know how to help with the specific software or task you need.</text>
</g>
<!-- Calculating Wait Time&#45;&gt;Finding Technicians -->
<g id="edge8" class="edge">
<title>Calculating Wait Time&#45;&gt;Finding Technicians</title>
<path fill="none" stroke="black" d="M500.63,-898.41C500.63,-890.18 500.63,-881.34 500.63,-872.98"/>
<polygon fill="black" stroke="black" points="504.13,-872.75 500.63,-862.75 497.13,-872.75 504.13,-872.75"/>
</g>
<!-- Getting Job Info -->
<g id="node10" class="node">
<title>Getting Job Info</title>
<polygon fill="none" stroke="black" points="855.13,-772.58 146.13,-772.58 146.13,-718.58 855.13,-718.58 855.13,-772.58"/>
<text text-anchor="middle" x="500.63" y="-757.38" font-family="Times,serif" font-size="14.00">Getting Job Info</text>
<text text-anchor="middle" x="500.63" y="-726.38" font-family="Times,serif" font-size="14.00">The website fetches more detailed information about the job, so it knows what needs to be done.</text>
</g>
<!-- Finding Technicians&#45;&gt;Getting Job Info -->
<g id="edge9" class="edge">
<title>Finding Technicians&#45;&gt;Getting Job Info</title>
<path fill="none" stroke="black" d="M500.63,-808.18C500.63,-800.19 500.63,-791.27 500.63,-782.76"/>
<polygon fill="black" stroke="black" points="504.13,-782.66 500.63,-772.66 497.13,-782.66 504.13,-782.66"/>
</g>
<!-- Deciding to Decline -->
<g id="node11" class="node">
<title>Deciding to Decline</title>
<polygon fill="none" stroke="black" points="710.63,-682.58 290.63,-682.58 290.63,-613.58 710.63,-613.58 710.63,-682.58"/>
<text text-anchor="middle" x="500.63" y="-667.38" font-family="Times,serif" font-size="14.00">Deciding to Decline</text>
<text text-anchor="middle" x="500.63" y="-636.38" font-family="Times,serif" font-size="14.00">You can choose to decline the job if it&#39;s not right for you.</text>
<text text-anchor="middle" x="500.63" y="-621.38" font-family="Times,serif" font-size="14.00">The website asks if you&#39;re sure before doing this.</text>
</g>
<!-- Getting Job Info&#45;&gt;Deciding to Decline -->
<g id="edge10" class="edge">
<title>Getting Job Info&#45;&gt;Deciding to Decline</title>
<path fill="none" stroke="black" d="M500.63,-718.48C500.63,-710.55 500.63,-701.59 500.63,-692.82"/>
<polygon fill="black" stroke="black" points="504.13,-692.68 500.63,-682.68 497.13,-692.68 504.13,-692.68"/>
</g>
<!-- Confirming Decline -->
<g id="node12" class="node">
<title>Confirming Decline</title>
<polygon fill="none" stroke="black" points="777.63,-577.58 223.63,-577.58 223.63,-508.58 777.63,-508.58 777.63,-577.58"/>
<text text-anchor="middle" x="500.63" y="-562.38" font-family="Times,serif" font-size="14.00">Confirming Decline</text>
<text text-anchor="middle" x="500.63" y="-531.38" font-family="Times,serif" font-size="14.00">After you click to decline, the website double&#45;checks with you to make sure</text>
<text text-anchor="middle" x="500.63" y="-516.38" font-family="Times,serif" font-size="14.00">you really want to decline the job.</text>
</g>
<!-- Deciding to Decline&#45;&gt;Confirming Decline -->
<g id="edge11" class="edge">
<title>Deciding to Decline&#45;&gt;Confirming Decline</title>
<path fill="none" stroke="black" d="M500.63,-613.35C500.63,-605.26 500.63,-596.5 500.63,-588.02"/>
<polygon fill="black" stroke="black" points="504.13,-587.88 500.63,-577.88 497.13,-587.88 504.13,-587.88"/>
</g>
<!-- Making Progress -->
<g id="node13" class="node">
<title>Making Progress</title>
<polygon fill="none" stroke="black" points="846.63,-472.58 154.63,-472.58 154.63,-418.58 846.63,-418.58 846.63,-472.58"/>
<text text-anchor="middle" x="500.63" y="-457.38" font-family="Times,serif" font-size="14.00">Making Progress</text>
<text text-anchor="middle" x="500.63" y="-426.38" font-family="Times,serif" font-size="14.00">As you continue to use the page, the website reacts to your actions and updates what you see.</text>
</g>
<!-- Confirming Decline&#45;&gt;Making Progress -->
<g id="edge12" class="edge">
<title>Confirming Decline&#45;&gt;Making Progress</title>
<path fill="none" stroke="black" d="M500.63,-508.41C500.63,-500.18 500.63,-491.34 500.63,-482.98"/>
<polygon fill="black" stroke="black" points="504.13,-482.75 500.63,-472.75 497.13,-482.75 504.13,-482.75"/>
</g>
<!-- Checking Technicians -->
<g id="node14" class="node">
<title>Checking Technicians</title>
<polygon fill="none" stroke="black" points="809.13,-382.58 192.13,-382.58 192.13,-313.58 809.13,-313.58 809.13,-382.58"/>
<text text-anchor="middle" x="500.63" y="-367.38" font-family="Times,serif" font-size="14.00">Checking Technicians</text>
<text text-anchor="middle" x="500.63" y="-336.38" font-family="Times,serif" font-size="14.00">The website keeps an eye on available technicians and tells you how long you might</text>
<text text-anchor="middle" x="500.63" y="-321.38" font-family="Times,serif" font-size="14.00">have to wait for their help.</text>
</g>
<!-- Making Progress&#45;&gt;Checking Technicians -->
<g id="edge13" class="edge">
<title>Making Progress&#45;&gt;Checking Technicians</title>
<path fill="none" stroke="black" d="M500.63,-418.48C500.63,-410.55 500.63,-401.59 500.63,-392.82"/>
<polygon fill="black" stroke="black" points="504.13,-392.68 500.63,-382.68 497.13,-392.68 504.13,-392.68"/>
</g>
<!-- Technician Search -->
<g id="node15" class="node">
<title>Technician Search</title>
<polygon fill="none" stroke="black" points="839.13,-277.58 162.13,-277.58 162.13,-223.58 839.13,-223.58 839.13,-277.58"/>
<text text-anchor="middle" x="500.63" y="-262.38" font-family="Times,serif" font-size="14.00">Technician Search</text>
<text text-anchor="middle" x="500.63" y="-231.38" font-family="Times,serif" font-size="14.00">The website searches for technicians who are skilled in the type of work you need help with.</text>
</g>
<!-- Checking Technicians&#45;&gt;Technician Search -->
<g id="edge14" class="edge">
<title>Checking Technicians&#45;&gt;Technician Search</title>
<path fill="none" stroke="black" d="M500.63,-313.41C500.63,-305.18 500.63,-296.34 500.63,-287.98"/>
<polygon fill="black" stroke="black" points="504.13,-287.75 500.63,-277.75 497.13,-287.75 504.13,-287.75"/>
</g>
<!-- Fetching Job Details -->
<g id="node16" class="node">
<title>Fetching Job Details</title>
<polygon fill="none" stroke="black" points="841.63,-187.58 159.63,-187.58 159.63,-133.58 841.63,-133.58 841.63,-187.58"/>
<text text-anchor="middle" x="500.63" y="-172.38" font-family="Times,serif" font-size="14.00">Fetching Job Details</text>
<text text-anchor="middle" x="500.63" y="-141.38" font-family="Times,serif" font-size="14.00">The website goes out and gets all the detailed information about the job you&#39;re interested in.</text>
</g>
<!-- Technician Search&#45;&gt;Fetching Job Details -->
<g id="edge15" class="edge">
<title>Technician Search&#45;&gt;Fetching Job Details</title>
<path fill="none" stroke="black" d="M500.63,-223.18C500.63,-215.19 500.63,-206.27 500.63,-197.76"/>
<polygon fill="black" stroke="black" points="504.13,-197.66 500.63,-187.66 497.13,-197.66 504.13,-197.66"/>
</g>
<!-- Showing Results -->
<g id="node17" class="node">
<title>Showing Results</title>
<ellipse fill="none" stroke="black" cx="500.63" cy="-48.79" rx="424.03" ry="48.58"/>
<text text-anchor="middle" x="500.63" y="-68.09" font-family="Times,serif" font-size="14.00">Showing Results</text>
<text text-anchor="middle" x="500.63" y="-37.09" font-family="Times,serif" font-size="14.00">Finally, the website displays all the relevant information and options on the page,</text>
<text text-anchor="middle" x="500.63" y="-22.09" font-family="Times,serif" font-size="14.00">showing you what&#39;s happening with your job posting.</text>
</g>
<!-- Fetching Job Details&#45;&gt;Showing Results -->
<g id="edge16" class="edge">
<title>Fetching Job Details&#45;&gt;Showing Results</title>
<path fill="none" stroke="black" d="M500.63,-133.56C500.63,-125.82 500.63,-117.01 500.63,-108.08"/>
<polygon fill="black" stroke="black" points="504.13,-108 500.63,-98 497.13,-108 504.13,-108"/>
</g>
</g>
</svg>
