<?xml version="1.0" encoding="UTF-8" standalone="no"?>
<!DOCTYPE svg PUBLIC "-//W3C//DTD SVG 1.1//EN"
 "http://www.w3.org/Graphics/SVG/1.1/DTD/svg11.dtd">
<!-- Generated by graphviz version 2.50.0 (0)
 -->
<!-- Pages: 1 -->
<svg width="737pt" height="1328pt"
 viewBox="0.00 0.00 737.00 1327.95" xmlns="http://www.w3.org/2000/svg" xmlns:xlink="http://www.w3.org/1999/xlink">
<g id="graph0" class="graph" transform="scale(1 1) rotate(0) translate(4 1323.95)">
<!-- Starting -->
<g id="node1" class="node">
<title>Starting</title>
<ellipse fill="none" stroke="black" cx="364.5" cy="-1271.16" rx="336.67" ry="48.58"/>
<text text-anchor="middle" x="364.5" y="-1290.46" font-family="Times,serif" font-size="14.00">Starting</text>
<text text-anchor="middle" x="364.5" y="-1259.46" font-family="Times,serif" font-size="14.00">Imagine you&#39;re setting up your profile on a website.</text>
<text text-anchor="middle" x="364.5" y="-1244.46" font-family="Times,serif" font-size="14.00">The first thing that happens is your profile setup page is shown.</text>
</g>
<!-- Checking the Job -->
<g id="node2" class="node">
<title>Checking the Job</title>
<polygon fill="none" stroke="black" points="644.5,-1186.37 84.5,-1186.37 84.5,-1117.37 644.5,-1117.37 644.5,-1186.37"/>
<text text-anchor="middle" x="364.5" y="-1171.17" font-family="Times,serif" font-size="14.00">Checking the Job</text>
<text text-anchor="middle" x="364.5" y="-1140.17" font-family="Times,serif" font-size="14.00">The website checks if you&#39;re creating a new job or updating an existing one.</text>
<text text-anchor="middle" x="364.5" y="-1125.17" font-family="Times,serif" font-size="14.00">It gets this information from the web address.</text>
</g>
<!-- Starting&#45;&gt;Checking the Job -->
<g id="edge1" class="edge">
<title>Starting&#45;&gt;Checking the Job</title>
<path fill="none" stroke="black" d="M364.5,-1222.11C364.5,-1213.75 364.5,-1205.09 364.5,-1196.84"/>
<polygon fill="black" stroke="black" points="368,-1196.67 364.5,-1186.67 361,-1196.67 368,-1196.67"/>
</g>
<!-- Checking for Special Instructions -->
<g id="node3" class="node">
<title>Checking for Special Instructions</title>
<polygon fill="none" stroke="black" points="660.5,-1081.37 68.5,-1081.37 68.5,-1012.37 660.5,-1012.37 660.5,-1081.37"/>
<text text-anchor="middle" x="364.5" y="-1066.17" font-family="Times,serif" font-size="14.00">Checking for Special Instructions</text>
<text text-anchor="middle" x="364.5" y="-1035.17" font-family="Times,serif" font-size="14.00">The website also checks if there are any special instructions in the web address.</text>
<text text-anchor="middle" x="364.5" y="-1020.17" font-family="Times,serif" font-size="14.00">If there are, it remembers them.</text>
</g>
<!-- Checking the Job&#45;&gt;Checking for Special Instructions -->
<g id="edge2" class="edge">
<title>Checking the Job&#45;&gt;Checking for Special Instructions</title>
<path fill="none" stroke="black" d="M364.5,-1117.14C364.5,-1109.05 364.5,-1100.29 364.5,-1091.81"/>
<polygon fill="black" stroke="black" points="368,-1091.67 364.5,-1081.67 361,-1091.67 368,-1091.67"/>
</g>
<!-- Deciding What to Show -->
<g id="node4" class="node">
<title>Deciding What to Show</title>
<polygon fill="none" stroke="black" points="729,-976.37 0,-976.37 0,-907.37 729,-907.37 729,-976.37"/>
<text text-anchor="middle" x="364.5" y="-961.17" font-family="Times,serif" font-size="14.00">Deciding What to Show</text>
<text text-anchor="middle" x="364.5" y="-930.17" font-family="Times,serif" font-size="14.00">The website decides whether to show you the profile setup directly or to wait for more information,</text>
<text text-anchor="middle" x="364.5" y="-915.17" font-family="Times,serif" font-size="14.00">based on what it found in the previous steps.</text>
</g>
<!-- Checking for Special Instructions&#45;&gt;Deciding What to Show -->
<g id="edge3" class="edge">
<title>Checking for Special Instructions&#45;&gt;Deciding What to Show</title>
<path fill="none" stroke="black" d="M364.5,-1012.14C364.5,-1004.05 364.5,-995.29 364.5,-986.81"/>
<polygon fill="black" stroke="black" points="368,-986.67 364.5,-976.67 361,-986.67 368,-986.67"/>
</g>
<!-- Selecting Software -->
<g id="node5" class="node">
<title>Selecting Software</title>
<polygon fill="none" stroke="black" points="569.5,-871.37 159.5,-871.37 159.5,-802.37 569.5,-802.37 569.5,-871.37"/>
<text text-anchor="middle" x="364.5" y="-856.17" font-family="Times,serif" font-size="14.00">Selecting Software</text>
<text text-anchor="middle" x="364.5" y="-825.17" font-family="Times,serif" font-size="14.00">You start by choosing the software you need help with.</text>
<text text-anchor="middle" x="364.5" y="-810.17" font-family="Times,serif" font-size="14.00">The website lets you pick from a list.</text>
</g>
<!-- Deciding What to Show&#45;&gt;Selecting Software -->
<g id="edge4" class="edge">
<title>Deciding What to Show&#45;&gt;Selecting Software</title>
<path fill="none" stroke="black" d="M364.5,-907.14C364.5,-899.05 364.5,-890.29 364.5,-881.81"/>
<polygon fill="black" stroke="black" points="368,-881.67 364.5,-871.67 361,-881.67 368,-881.67"/>
</g>
<!-- Describing the Issue -->
<g id="node6" class="node">
<title>Describing the Issue</title>
<polygon fill="none" stroke="black" points="587,-766.37 142,-766.37 142,-697.37 587,-697.37 587,-766.37"/>
<text text-anchor="middle" x="364.5" y="-751.17" font-family="Times,serif" font-size="14.00">Describing the Issue</text>
<text text-anchor="middle" x="364.5" y="-720.17" font-family="Times,serif" font-size="14.00">You describe the issue you&#39;re facing.</text>
<text text-anchor="middle" x="364.5" y="-705.17" font-family="Times,serif" font-size="14.00">You might also see the estimated price and time for the job.</text>
</g>
<!-- Selecting Software&#45;&gt;Describing the Issue -->
<g id="edge5" class="edge">
<title>Selecting Software&#45;&gt;Describing the Issue</title>
<path fill="none" stroke="black" d="M364.5,-802.14C364.5,-794.05 364.5,-785.29 364.5,-776.81"/>
<polygon fill="black" stroke="black" points="368,-776.67 364.5,-766.67 361,-776.67 368,-776.67"/>
</g>
<!-- Creating the Job -->
<g id="node7" class="node">
<title>Creating the Job</title>
<polygon fill="none" stroke="black" points="506.5,-661.37 222.5,-661.37 222.5,-592.37 506.5,-592.37 506.5,-661.37"/>
<text text-anchor="middle" x="364.5" y="-646.17" font-family="Times,serif" font-size="14.00">Creating the Job</text>
<text text-anchor="middle" x="364.5" y="-615.17" font-family="Times,serif" font-size="14.00">The website helps you create the job.</text>
<text text-anchor="middle" x="364.5" y="-600.17" font-family="Times,serif" font-size="14.00">This might involve more details.</text>
</g>
<!-- Describing the Issue&#45;&gt;Creating the Job -->
<g id="edge6" class="edge">
<title>Describing the Issue&#45;&gt;Creating the Job</title>
<path fill="none" stroke="black" d="M364.5,-697.14C364.5,-689.05 364.5,-680.29 364.5,-671.81"/>
<polygon fill="black" stroke="black" points="368,-671.67 364.5,-661.67 361,-671.67 368,-671.67"/>
</g>
<!-- Getting Ready -->
<g id="node8" class="node">
<title>Getting Ready</title>
<polygon fill="none" stroke="black" points="612.5,-556.37 116.5,-556.37 116.5,-502.37 612.5,-502.37 612.5,-556.37"/>
<text text-anchor="middle" x="364.5" y="-541.17" font-family="Times,serif" font-size="14.00">Getting Ready</text>
<text text-anchor="middle" x="364.5" y="-510.17" font-family="Times,serif" font-size="14.00">The website is getting everything ready for you in the background.</text>
</g>
<!-- Creating the Job&#45;&gt;Getting Ready -->
<g id="edge7" class="edge">
<title>Creating the Job&#45;&gt;Getting Ready</title>
<path fill="none" stroke="black" d="M364.5,-592.2C364.5,-583.97 364.5,-575.12 364.5,-566.77"/>
<polygon fill="black" stroke="black" points="368,-566.54 364.5,-556.54 361,-566.54 368,-566.54"/>
</g>
<!-- Final Steps -->
<g id="node9" class="node">
<title>Final Steps</title>
<polygon fill="none" stroke="black" points="537.5,-466.37 191.5,-466.37 191.5,-397.37 537.5,-397.37 537.5,-466.37"/>
<text text-anchor="middle" x="364.5" y="-451.17" font-family="Times,serif" font-size="14.00">Final Steps</text>
<text text-anchor="middle" x="364.5" y="-420.17" font-family="Times,serif" font-size="14.00">You see a summary of your choices.</text>
<text text-anchor="middle" x="364.5" y="-405.17" font-family="Times,serif" font-size="14.00">If you&#39;re setting a schedule, you choose when.</text>
</g>
<!-- Getting Ready&#45;&gt;Final Steps -->
<g id="edge8" class="edge">
<title>Getting Ready&#45;&gt;Final Steps</title>
<path fill="none" stroke="black" d="M364.5,-502.27C364.5,-494.33 364.5,-485.38 364.5,-476.61"/>
<polygon fill="black" stroke="black" points="368,-476.47 364.5,-466.47 361,-476.47 368,-476.47"/>
</g>
<!-- Almost Done -->
<g id="node10" class="node">
<title>Almost Done</title>
<polygon fill="none" stroke="black" points="714,-361.37 15,-361.37 15,-307.37 714,-307.37 714,-361.37"/>
<text text-anchor="middle" x="364.5" y="-346.17" font-family="Times,serif" font-size="14.00">Almost Done</text>
<text text-anchor="middle" x="364.5" y="-315.17" font-family="Times,serif" font-size="14.00">You&#39;re almost done! The website collects some information from you, like your name and email.</text>
</g>
<!-- Final Steps&#45;&gt;Almost Done -->
<g id="edge9" class="edge">
<title>Final Steps&#45;&gt;Almost Done</title>
<path fill="none" stroke="black" d="M364.5,-397.2C364.5,-388.97 364.5,-380.12 364.5,-371.77"/>
<polygon fill="black" stroke="black" points="368,-371.54 364.5,-361.54 361,-371.54 368,-371.54"/>
</g>
<!-- Confirming -->
<g id="node11" class="node">
<title>Confirming</title>
<polygon fill="none" stroke="black" points="568.5,-271.37 160.5,-271.37 160.5,-217.37 568.5,-217.37 568.5,-271.37"/>
<text text-anchor="middle" x="364.5" y="-256.17" font-family="Times,serif" font-size="14.00">Confirming</text>
<text text-anchor="middle" x="364.5" y="-225.17" font-family="Times,serif" font-size="14.00">You make sure everything looks right and click &quot;Next&quot;.</text>
</g>
<!-- Almost Done&#45;&gt;Confirming -->
<g id="edge10" class="edge">
<title>Almost Done&#45;&gt;Confirming</title>
<path fill="none" stroke="black" d="M364.5,-306.96C364.5,-298.97 364.5,-290.06 364.5,-281.54"/>
<polygon fill="black" stroke="black" points="368,-281.45 364.5,-271.45 361,-281.45 368,-281.45"/>
</g>
<!-- Finishing -->
<g id="node12" class="node">
<title>Finishing</title>
<polygon fill="none" stroke="black" points="559,-181.37 170,-181.37 170,-112.37 559,-112.37 559,-181.37"/>
<text text-anchor="middle" x="364.5" y="-166.17" font-family="Times,serif" font-size="14.00">Finishing</text>
<text text-anchor="middle" x="364.5" y="-135.17" font-family="Times,serif" font-size="14.00">The website finishes setting up your profile and job,</text>
<text text-anchor="middle" x="364.5" y="-120.17" font-family="Times,serif" font-size="14.00">making sure all the details are correct.</text>
</g>
<!-- Confirming&#45;&gt;Finishing -->
<g id="edge11" class="edge">
<title>Confirming&#45;&gt;Finishing</title>
<path fill="none" stroke="black" d="M364.5,-217.27C364.5,-209.33 364.5,-200.38 364.5,-191.61"/>
<polygon fill="black" stroke="black" points="368,-191.47 364.5,-181.47 361,-191.47 368,-191.47"/>
</g>
<!-- Success! -->
<g id="node13" class="node">
<title>Success!</title>
<ellipse fill="none" stroke="black" cx="364.5" cy="-38.18" rx="249.72" ry="38.37"/>
<text text-anchor="middle" x="364.5" y="-49.98" font-family="Times,serif" font-size="14.00">Success!</text>
<text text-anchor="middle" x="364.5" y="-18.98" font-family="Times,serif" font-size="14.00">You&#39;re done! Your profile and job are all set up.</text>
</g>
<!-- Finishing&#45;&gt;Success! -->
<g id="edge12" class="edge">
<title>Finishing&#45;&gt;Success!</title>
<path fill="none" stroke="black" d="M364.5,-112.11C364.5,-103.95 364.5,-95.08 364.5,-86.43"/>
<polygon fill="black" stroke="black" points="368,-86.42 364.5,-76.42 361,-86.42 368,-86.42"/>
</g>
</g>
</svg>
