<?xml version="1.0" encoding="UTF-8" standalone="no"?>
<!DOCTYPE svg PUBLIC "-//W3C//DTD SVG 1.1//EN"
 "http://www.w3.org/Graphics/SVG/1.1/DTD/svg11.dtd">
<!-- Generated by graphviz version 2.50.0 (0)
 -->
<!-- Pages: 1 -->
<svg width="831pt" height="1247pt"
 viewBox="0.00 0.00 831.00 1246.74" xmlns="http://www.w3.org/2000/svg" xmlns:xlink="http://www.w3.org/1999/xlink">
<g id="graph0" class="graph" transform="scale(1 1) rotate(0) translate(4 1242.74)">
<!-- Start -->
<g id="node1" class="node">
<title>Start</title>
<ellipse fill="none" stroke="black" cx="411.5" cy="-1200.55" rx="292.07" ry="38.37"/>
<text text-anchor="middle" x="411.5" y="-1212.35" font-family="Times,serif" font-size="14.00">Start</text>
<text text-anchor="middle" x="411.5" y="-1181.35" font-family="Times,serif" font-size="14.00">You&#39;re on the page where you can reset your password.</text>
</g>
<!-- Checking Loading -->
<g id="node2" class="node">
<title>Checking Loading</title>
<polygon fill="none" stroke="black" points="675,-1126.37 148,-1126.37 148,-1057.37 675,-1057.37 675,-1126.37"/>
<text text-anchor="middle" x="411.5" y="-1111.17" font-family="Times,serif" font-size="14.00">Checking Loading</text>
<text text-anchor="middle" x="411.5" y="-1080.17" font-family="Times,serif" font-size="14.00">The computer checks if it&#39;s busy with </text>
<text text-anchor="middle" x="411.5" y="-1065.17" font-family="Times,serif" font-size="14.00">something in the background. If it is, you might see a loading message.</text>
</g>
<!-- Start&#45;&gt;Checking Loading -->
<g id="edge1" class="edge">
<title>Start&#45;&gt;Checking Loading</title>
<path fill="none" stroke="black" d="M411.5,-1162.24C411.5,-1153.95 411.5,-1145.09 411.5,-1136.58"/>
<polygon fill="black" stroke="black" points="415,-1136.42 411.5,-1126.42 408,-1136.42 415,-1136.42"/>
</g>
<!-- Checking Token -->
<g id="node3" class="node">
<title>Checking Token</title>
<polygon fill="none" stroke="black" points="684.5,-1021.37 138.5,-1021.37 138.5,-952.37 684.5,-952.37 684.5,-1021.37"/>
<text text-anchor="middle" x="411.5" y="-1006.17" font-family="Times,serif" font-size="14.00">Checking Token</text>
<text text-anchor="middle" x="411.5" y="-975.17" font-family="Times,serif" font-size="14.00">The computer checks if the special link you clicked is valid.</text>
<text text-anchor="middle" x="411.5" y="-960.17" font-family="Times,serif" font-size="14.00"> If the link isn&#39;t right, it&#39;ll tell you it&#39;s not valid and won&#39;t let you continue.</text>
</g>
<!-- Checking Loading&#45;&gt;Checking Token -->
<g id="edge2" class="edge">
<title>Checking Loading&#45;&gt;Checking Token</title>
<path fill="none" stroke="black" d="M411.5,-1057.14C411.5,-1049.05 411.5,-1040.29 411.5,-1031.81"/>
<polygon fill="black" stroke="black" points="415,-1031.67 411.5,-1021.67 408,-1031.67 415,-1031.67"/>
</g>
<!-- Enter New Password -->
<g id="node4" class="node">
<title>Enter New Password</title>
<polygon fill="none" stroke="black" points="720,-916.37 103,-916.37 103,-862.37 720,-862.37 720,-916.37"/>
<text text-anchor="middle" x="411.5" y="-901.17" font-family="Times,serif" font-size="14.00">Enter New Password</text>
<text text-anchor="middle" x="411.5" y="-870.17" font-family="Times,serif" font-size="14.00">You&#39;ll be asked to type in your new password, the one you want to use from now on.</text>
</g>
<!-- Checking Token&#45;&gt;Enter New Password -->
<g id="edge3" class="edge">
<title>Checking Token&#45;&gt;Enter New Password</title>
<path fill="none" stroke="black" d="M411.5,-952.2C411.5,-943.97 411.5,-935.12 411.5,-926.77"/>
<polygon fill="black" stroke="black" points="415,-926.54 411.5,-916.54 408,-926.54 415,-926.54"/>
</g>
<!-- Password Rules -->
<g id="node5" class="node">
<title>Password Rules</title>
<polygon fill="none" stroke="black" points="816,-826.37 7,-826.37 7,-757.37 816,-757.37 816,-826.37"/>
<text text-anchor="middle" x="411.5" y="-811.17" font-family="Times,serif" font-size="14.00">Password Rules</text>
<text text-anchor="middle" x="411.5" y="-780.17" font-family="Times,serif" font-size="14.00">The computer makes sure your password follows certain rules. It needs to be a bit complicated, with numbers,</text>
<text text-anchor="middle" x="411.5" y="-765.17" font-family="Times,serif" font-size="14.00"> letters, and special characters.</text>
</g>
<!-- Enter New Password&#45;&gt;Password Rules -->
<g id="edge4" class="edge">
<title>Enter New Password&#45;&gt;Password Rules</title>
<path fill="none" stroke="black" d="M411.5,-862.27C411.5,-854.33 411.5,-845.38 411.5,-836.61"/>
<polygon fill="black" stroke="black" points="415,-836.47 411.5,-826.47 408,-836.47 415,-836.47"/>
</g>
<!-- Confirm Password -->
<g id="node6" class="node">
<title>Confirm Password</title>
<polygon fill="none" stroke="black" points="823,-721.37 0,-721.37 0,-667.37 823,-667.37 823,-721.37"/>
<text text-anchor="middle" x="411.5" y="-706.17" font-family="Times,serif" font-size="14.00">Confirm Password</text>
<text text-anchor="middle" x="411.5" y="-675.17" font-family="Times,serif" font-size="14.00">You have to type your new password again to make sure you didn&#39;t make a mistake when typing it the first time.</text>
</g>
<!-- Password Rules&#45;&gt;Confirm Password -->
<g id="edge5" class="edge">
<title>Password Rules&#45;&gt;Confirm Password</title>
<path fill="none" stroke="black" d="M411.5,-757.2C411.5,-748.97 411.5,-740.12 411.5,-731.77"/>
<polygon fill="black" stroke="black" points="415,-731.54 411.5,-721.54 408,-731.54 415,-731.54"/>
</g>
<!-- Clicking Reset -->
<g id="node7" class="node">
<title>Clicking Reset</title>
<polygon fill="none" stroke="black" points="734.5,-631.37 88.5,-631.37 88.5,-577.37 734.5,-577.37 734.5,-631.37"/>
<text text-anchor="middle" x="411.5" y="-616.17" font-family="Times,serif" font-size="14.00">Clicking Reset</text>
<text text-anchor="middle" x="411.5" y="-585.17" font-family="Times,serif" font-size="14.00">You click the &quot;Reset&quot; button to tell the computer you&#39;re ready to change your password.</text>
</g>
<!-- Confirm Password&#45;&gt;Clicking Reset -->
<g id="edge6" class="edge">
<title>Confirm Password&#45;&gt;Clicking Reset</title>
<path fill="none" stroke="black" d="M411.5,-666.96C411.5,-658.97 411.5,-650.06 411.5,-641.54"/>
<polygon fill="black" stroke="black" points="415,-641.45 411.5,-631.45 408,-641.45 415,-641.45"/>
</g>
<!-- Sending Information -->
<g id="node8" class="node">
<title>Sending Information</title>
<polygon fill="none" stroke="black" points="736.5,-541.37 86.5,-541.37 86.5,-487.37 736.5,-487.37 736.5,-541.37"/>
<text text-anchor="middle" x="411.5" y="-526.17" font-family="Times,serif" font-size="14.00">Sending Information</text>
<text text-anchor="middle" x="411.5" y="-495.17" font-family="Times,serif" font-size="14.00">The computer takes the new password you typed and the special link you clicked earlier.</text>
</g>
<!-- Clicking Reset&#45;&gt;Sending Information -->
<g id="edge7" class="edge">
<title>Clicking Reset&#45;&gt;Sending Information</title>
<path fill="none" stroke="black" d="M411.5,-576.96C411.5,-568.97 411.5,-560.06 411.5,-551.54"/>
<polygon fill="black" stroke="black" points="415,-551.45 411.5,-541.45 408,-551.45 415,-551.45"/>
</g>
<!-- Getting Token -->
<g id="node9" class="node">
<title>Getting Token</title>
<polygon fill="none" stroke="black" points="624.5,-451.37 198.5,-451.37 198.5,-397.37 624.5,-397.37 624.5,-451.37"/>
<text text-anchor="middle" x="411.5" y="-436.17" font-family="Times,serif" font-size="14.00">Getting Token</text>
<text text-anchor="middle" x="411.5" y="-405.17" font-family="Times,serif" font-size="14.00">If there&#39;s a secret code in the link, the computer grabs it.</text>
</g>
<!-- Sending Information&#45;&gt;Getting Token -->
<g id="edge8" class="edge">
<title>Sending Information&#45;&gt;Getting Token</title>
<path fill="none" stroke="black" d="M411.5,-486.96C411.5,-478.97 411.5,-470.06 411.5,-461.54"/>
<polygon fill="black" stroke="black" points="415,-461.45 411.5,-451.45 408,-461.45 415,-461.45"/>
</g>
<!-- Changing Password -->
<g id="node10" class="node">
<title>Changing Password</title>
<polygon fill="none" stroke="black" points="591,-361.37 232,-361.37 232,-292.37 591,-292.37 591,-361.37"/>
<text text-anchor="middle" x="411.5" y="-346.17" font-family="Times,serif" font-size="14.00">Changing Password</text>
<text text-anchor="middle" x="411.5" y="-315.17" font-family="Times,serif" font-size="14.00">The computer does the magic and changes your</text>
<text text-anchor="middle" x="411.5" y="-300.17" font-family="Times,serif" font-size="14.00"> password to the new one you typed.</text>
</g>
<!-- Getting Token&#45;&gt;Changing Password -->
<g id="edge9" class="edge">
<title>Getting Token&#45;&gt;Changing Password</title>
<path fill="none" stroke="black" d="M411.5,-397.27C411.5,-389.33 411.5,-380.38 411.5,-371.61"/>
<polygon fill="black" stroke="black" points="415,-371.47 411.5,-361.47 408,-371.47 415,-371.47"/>
</g>
<!-- Success Message -->
<g id="node11" class="node">
<title>Success Message</title>
<polygon fill="none" stroke="black" points="669,-256.37 154,-256.37 154,-202.37 669,-202.37 669,-256.37"/>
<text text-anchor="middle" x="411.5" y="-241.17" font-family="Times,serif" font-size="14.00">Success Message</text>
<text text-anchor="middle" x="411.5" y="-210.17" font-family="Times,serif" font-size="14.00">You&#39;ll see a message saying your password was successfully changed.</text>
</g>
<!-- Changing Password&#45;&gt;Success Message -->
<g id="edge10" class="edge">
<title>Changing Password&#45;&gt;Success Message</title>
<path fill="none" stroke="black" d="M411.5,-292.2C411.5,-283.97 411.5,-275.12 411.5,-266.77"/>
<polygon fill="black" stroke="black" points="415,-266.54 411.5,-256.54 408,-266.54 415,-266.54"/>
</g>
<!-- Going Home -->
<g id="node12" class="node">
<title>Going Home</title>
<polygon fill="none" stroke="black" points="643.5,-166.37 179.5,-166.37 179.5,-112.37 643.5,-112.37 643.5,-166.37"/>
<text text-anchor="middle" x="411.5" y="-151.17" font-family="Times,serif" font-size="14.00">Going Home</text>
<text text-anchor="middle" x="411.5" y="-120.17" font-family="Times,serif" font-size="14.00">The computer sends you back to the homepage of the website.</text>
</g>
<!-- Success Message&#45;&gt;Going Home -->
<g id="edge11" class="edge">
<title>Success Message&#45;&gt;Going Home</title>
<path fill="none" stroke="black" d="M411.5,-201.96C411.5,-193.97 411.5,-185.06 411.5,-176.54"/>
<polygon fill="black" stroke="black" points="415,-176.45 411.5,-166.45 408,-176.45 415,-176.45"/>
</g>
<!-- Finish -->
<g id="node13" class="node">
<title>Finish</title>
<ellipse fill="none" stroke="black" cx="411.5" cy="-38.18" rx="320.14" ry="38.37"/>
<text text-anchor="middle" x="411.5" y="-49.98" font-family="Times,serif" font-size="14.00">Finish</text>
<text text-anchor="middle" x="411.5" y="-18.98" font-family="Times,serif" font-size="14.00">The whole process is done, and your new password is all set!</text>
</g>
<!-- Going Home&#45;&gt;Finish -->
<g id="edge12" class="edge">
<title>Going Home&#45;&gt;Finish</title>
<path fill="none" stroke="black" d="M411.5,-112.31C411.5,-104.47 411.5,-95.61 411.5,-86.83"/>
<polygon fill="black" stroke="black" points="415,-86.63 411.5,-76.63 408,-86.63 415,-86.63"/>
</g>
</g>
</svg>
