<?xml version="1.0" encoding="UTF-8" standalone="no"?>
<!DOCTYPE svg PUBLIC "-//W3C//DTD SVG 1.1//EN"
 "http://www.w3.org/Graphics/SVG/1.1/DTD/svg11.dtd">
<!-- Generated by graphviz version 2.50.0 (0)
 -->
<!-- Pages: 1 -->
<svg width="972pt" height="1490pt"
 viewBox="0.00 0.00 972.49 1490.37" xmlns="http://www.w3.org/2000/svg" xmlns:xlink="http://www.w3.org/1999/xlink">
<g id="graph0" class="graph" transform="scale(1 1) rotate(0) translate(4 1486.37)">
<!-- Start -->
<g id="node1" class="node">
<title>Start</title>
<ellipse fill="none" stroke="black" cx="482.25" cy="-1444.19" rx="334.42" ry="38.37"/>
<text text-anchor="middle" x="482.25" y="-1455.99" font-family="Times,serif" font-size="14.00">Start</text>
<text text-anchor="middle" x="482.25" y="-1424.99" font-family="Times,serif" font-size="14.00">You open the page where you can add a new card for payments.</text>
</g>
<!-- Check for Loading -->
<g id="node2" class="node">
<title>Check for Loading</title>
<polygon fill="none" stroke="black" points="744.75,-1370.01 219.75,-1370.01 219.75,-1301.01 744.75,-1301.01 744.75,-1370.01"/>
<text text-anchor="middle" x="482.25" y="-1354.81" font-family="Times,serif" font-size="14.00">Check for Loading</text>
<text text-anchor="middle" x="482.25" y="-1323.81" font-family="Times,serif" font-size="14.00">The system quickly checks if everything is ready to show you the page.</text>
<text text-anchor="middle" x="482.25" y="-1308.81" font-family="Times,serif" font-size="14.00">If it&#39;s not ready, you might see a loading message for a moment.</text>
</g>
<!-- Start&#45;&gt;Check for Loading -->
<g id="edge1" class="edge">
<title>Start&#45;&gt;Check for Loading</title>
<path fill="none" stroke="black" d="M482.25,-1405.88C482.25,-1397.59 482.25,-1388.73 482.25,-1380.22"/>
<polygon fill="black" stroke="black" points="485.75,-1380.06 482.25,-1370.06 478.75,-1380.06 485.75,-1380.06"/>
</g>
<!-- Prepare for Card Setup -->
<g id="node3" class="node">
<title>Prepare for Card Setup</title>
<polygon fill="none" stroke="black" points="778.25,-1265.01 186.25,-1265.01 186.25,-1196.01 778.25,-1196.01 778.25,-1265.01"/>
<text text-anchor="middle" x="482.25" y="-1249.81" font-family="Times,serif" font-size="14.00">Prepare for Card Setup</text>
<text text-anchor="middle" x="482.25" y="-1218.81" font-family="Times,serif" font-size="14.00">The website gets ready to set up the part that helps you enter your card details.</text>
<text text-anchor="middle" x="482.25" y="-1203.81" font-family="Times,serif" font-size="14.00">Think of it as getting the &quot;tools&quot; ready to build the card entry form.</text>
</g>
<!-- Check for Loading&#45;&gt;Prepare for Card Setup -->
<g id="edge2" class="edge">
<title>Check for Loading&#45;&gt;Prepare for Card Setup</title>
<path fill="none" stroke="black" d="M482.25,-1300.78C482.25,-1292.69 482.25,-1283.93 482.25,-1275.45"/>
<polygon fill="black" stroke="black" points="485.75,-1275.31 482.25,-1265.31 478.75,-1275.31 485.75,-1275.31"/>
</g>
<!-- Getting the Card Tools -->
<g id="node4" class="node">
<title>Getting the Card Tools</title>
<polygon fill="none" stroke="black" points="856.25,-1160.01 108.25,-1160.01 108.25,-1091.01 856.25,-1091.01 856.25,-1160.01"/>
<text text-anchor="middle" x="482.25" y="-1144.81" font-family="Times,serif" font-size="14.00">Getting the Card Tools</text>
<text text-anchor="middle" x="482.25" y="-1113.81" font-family="Times,serif" font-size="14.00">The website asks for special tools from a different place (like asking for a specific tool from a toolbox).</text>
<text text-anchor="middle" x="482.25" y="-1098.81" font-family="Times,serif" font-size="14.00">These tools are important for handling your card information securely.</text>
</g>
<!-- Prepare for Card Setup&#45;&gt;Getting the Card Tools -->
<g id="edge3" class="edge">
<title>Prepare for Card Setup&#45;&gt;Getting the Card Tools</title>
<path fill="none" stroke="black" d="M482.25,-1195.78C482.25,-1187.69 482.25,-1178.93 482.25,-1170.45"/>
<polygon fill="black" stroke="black" points="485.75,-1170.31 482.25,-1160.31 478.75,-1170.31 485.75,-1170.31"/>
</g>
<!-- Checking for Changes -->
<g id="node5" class="node">
<title>Checking for Changes</title>
<polygon fill="none" stroke="black" points="786.25,-1055.01 178.25,-1055.01 178.25,-986.01 786.25,-986.01 786.25,-1055.01"/>
<text text-anchor="middle" x="482.25" y="-1039.81" font-family="Times,serif" font-size="14.00">Checking for Changes</text>
<text text-anchor="middle" x="482.25" y="-1008.81" font-family="Times,serif" font-size="14.00">The website keeps an eye on whether anything important about the tools changes.</text>
<text text-anchor="middle" x="482.25" y="-993.81" font-family="Times,serif" font-size="14.00">If it does, the website is ready to react.</text>
</g>
<!-- Getting the Card Tools&#45;&gt;Checking for Changes -->
<g id="edge4" class="edge">
<title>Getting the Card Tools&#45;&gt;Checking for Changes</title>
<path fill="none" stroke="black" d="M482.25,-1090.78C482.25,-1082.69 482.25,-1073.93 482.25,-1065.45"/>
<polygon fill="black" stroke="black" points="485.75,-1065.31 482.25,-1055.31 478.75,-1065.31 485.75,-1065.31"/>
</g>
<!-- Layout and Design -->
<g id="node6" class="node">
<title>Layout and Design</title>
<polygon fill="none" stroke="black" points="811.25,-950.01 153.25,-950.01 153.25,-866.01 811.25,-866.01 811.25,-950.01"/>
<text text-anchor="middle" x="482.25" y="-934.81" font-family="Times,serif" font-size="14.00">Layout and Design</text>
<text text-anchor="middle" x="482.25" y="-903.81" font-family="Times,serif" font-size="14.00">The website sets up the layout and design of the page, like arranging furniture in a room.</text>
<text text-anchor="middle" x="482.25" y="-888.81" font-family="Times,serif" font-size="14.00">It places your user information on the left, the main content in the middle,</text>
<text text-anchor="middle" x="482.25" y="-873.81" font-family="Times,serif" font-size="14.00">and some additional info on the right.</text>
</g>
<!-- Checking for Changes&#45;&gt;Layout and Design -->
<g id="edge5" class="edge">
<title>Checking for Changes&#45;&gt;Layout and Design</title>
<path fill="none" stroke="black" d="M482.25,-985.75C482.25,-977.72 482.25,-968.98 482.25,-960.36"/>
<polygon fill="black" stroke="black" points="485.75,-960.35 482.25,-950.35 478.75,-960.35 485.75,-960.35"/>
</g>
<!-- Checking for Loading (Again) -->
<g id="node7" class="node">
<title>Checking for Loading (Again)</title>
<polygon fill="none" stroke="black" points="748.25,-830.01 216.25,-830.01 216.25,-761.01 748.25,-761.01 748.25,-830.01"/>
<text text-anchor="middle" x="482.25" y="-814.81" font-family="Times,serif" font-size="14.00">Checking for Loading (Again)</text>
<text text-anchor="middle" x="482.25" y="-783.81" font-family="Times,serif" font-size="14.00">The website checks one more time if everything is still loading properly.</text>
<text text-anchor="middle" x="482.25" y="-768.81" font-family="Times,serif" font-size="14.00">This helps ensure that everything you&#39;ll see works correctly.</text>
</g>
<!-- Layout and Design&#45;&gt;Checking for Loading (Again) -->
<g id="edge6" class="edge">
<title>Layout and Design&#45;&gt;Checking for Loading (Again)</title>
<path fill="none" stroke="black" d="M482.25,-865.86C482.25,-857.49 482.25,-848.65 482.25,-840.19"/>
<polygon fill="black" stroke="black" points="485.75,-840.11 482.25,-830.11 478.75,-840.11 485.75,-840.11"/>
</g>
<!-- Top Bar -->
<g id="node8" class="node">
<title>Top Bar</title>
<polygon fill="none" stroke="black" points="763.75,-725.01 200.75,-725.01 200.75,-671.01 763.75,-671.01 763.75,-725.01"/>
<text text-anchor="middle" x="482.25" y="-709.81" font-family="Times,serif" font-size="14.00">Top Bar</text>
<text text-anchor="middle" x="482.25" y="-678.81" font-family="Times,serif" font-size="14.00">A fancy bar at the top of the page shows your name and some other options.</text>
</g>
<!-- Checking for Loading (Again)&#45;&gt;Top Bar -->
<g id="edge7" class="edge">
<title>Checking for Loading (Again)&#45;&gt;Top Bar</title>
<path fill="none" stroke="black" d="M482.25,-760.84C482.25,-752.61 482.25,-743.76 482.25,-735.41"/>
<polygon fill="black" stroke="black" points="485.75,-735.17 482.25,-725.17 478.75,-735.17 485.75,-735.17"/>
</g>
<!-- Title -->
<g id="node9" class="node">
<title>Title</title>
<polygon fill="none" stroke="black" points="670.25,-635.01 294.25,-635.01 294.25,-566.01 670.25,-566.01 670.25,-635.01"/>
<text text-anchor="middle" x="482.25" y="-619.81" font-family="Times,serif" font-size="14.00">Title</text>
<text text-anchor="middle" x="482.25" y="-588.81" font-family="Times,serif" font-size="14.00">A big title appears saying &quot;Add Payment Method.&quot;</text>
<text text-anchor="middle" x="482.25" y="-573.81" font-family="Times,serif" font-size="14.00">This tells you what you&#39;re about to do.</text>
</g>
<!-- Top Bar&#45;&gt;Title -->
<g id="edge8" class="edge">
<title>Top Bar&#45;&gt;Title</title>
<path fill="none" stroke="black" d="M482.25,-670.91C482.25,-662.97 482.25,-654.02 482.25,-645.25"/>
<polygon fill="black" stroke="black" points="485.75,-645.11 482.25,-635.11 478.75,-645.11 485.75,-645.11"/>
</g>
<!-- Name Input -->
<g id="node10" class="node">
<title>Name Input</title>
<polygon fill="none" stroke="black" points="846.25,-530.01 118.25,-530.01 118.25,-476.01 846.25,-476.01 846.25,-530.01"/>
<text text-anchor="middle" x="482.25" y="-514.81" font-family="Times,serif" font-size="14.00">Name Input</text>
<text text-anchor="middle" x="482.25" y="-483.81" font-family="Times,serif" font-size="14.00">You see a place where you can type your name – like when you fill in your name on a piece of paper.</text>
</g>
<!-- Title&#45;&gt;Name Input -->
<g id="edge9" class="edge">
<title>Title&#45;&gt;Name Input</title>
<path fill="none" stroke="black" d="M482.25,-565.84C482.25,-557.61 482.25,-548.76 482.25,-540.41"/>
<polygon fill="black" stroke="black" points="485.75,-540.17 482.25,-530.17 478.75,-540.17 485.75,-540.17"/>
</g>
<!-- Card Area -->
<g id="node11" class="node">
<title>Card Area</title>
<polygon fill="none" stroke="black" points="720.25,-440.01 244.25,-440.01 244.25,-371.01 720.25,-371.01 720.25,-440.01"/>
<text text-anchor="middle" x="482.25" y="-424.81" font-family="Times,serif" font-size="14.00">Card Area</text>
<text text-anchor="middle" x="482.25" y="-393.81" font-family="Times,serif" font-size="14.00">There&#39;s a special area where you&#39;ll later enter your card details.</text>
<text text-anchor="middle" x="482.25" y="-378.81" font-family="Times,serif" font-size="14.00">It&#39;s like a digital space where your card information will be safe.</text>
</g>
<!-- Name Input&#45;&gt;Card Area -->
<g id="edge10" class="edge">
<title>Name Input&#45;&gt;Card Area</title>
<path fill="none" stroke="black" d="M482.25,-475.91C482.25,-467.97 482.25,-459.02 482.25,-450.25"/>
<polygon fill="black" stroke="black" points="485.75,-450.11 482.25,-440.11 478.75,-450.11 485.75,-450.11"/>
</g>
<!-- Result Area -->
<g id="node12" class="node">
<title>Result Area</title>
<polygon fill="none" stroke="black" points="818.25,-335.01 146.25,-335.01 146.25,-281.01 818.25,-281.01 818.25,-335.01"/>
<text text-anchor="middle" x="482.25" y="-319.81" font-family="Times,serif" font-size="14.00">Result Area</text>
<text text-anchor="middle" x="482.25" y="-288.81" font-family="Times,serif" font-size="14.00">Next to the card area, there&#39;s a place where the website can show you results or messages.</text>
</g>
<!-- Card Area&#45;&gt;Result Area -->
<g id="edge11" class="edge">
<title>Card Area&#45;&gt;Result Area</title>
<path fill="none" stroke="black" d="M482.25,-370.84C482.25,-362.61 482.25,-353.76 482.25,-345.41"/>
<polygon fill="black" stroke="black" points="485.75,-345.17 482.25,-335.17 478.75,-345.17 485.75,-345.17"/>
</g>
<!-- Save Button -->
<g id="node13" class="node">
<title>Save Button</title>
<polygon fill="none" stroke="black" points="703.75,-245.01 260.75,-245.01 260.75,-176.01 703.75,-176.01 703.75,-245.01"/>
<text text-anchor="middle" x="482.25" y="-229.81" font-family="Times,serif" font-size="14.00">Save Button</text>
<text text-anchor="middle" x="482.25" y="-198.81" font-family="Times,serif" font-size="14.00">Below everything, there&#39;s a button that says &quot;Save Card.&quot;</text>
<text text-anchor="middle" x="482.25" y="-183.81" font-family="Times,serif" font-size="14.00">This is what you&#39;ll click when you&#39;re done adding your card.</text>
</g>
<!-- Result Area&#45;&gt;Save Button -->
<g id="edge12" class="edge">
<title>Result Area&#45;&gt;Save Button</title>
<path fill="none" stroke="black" d="M482.25,-280.91C482.25,-272.97 482.25,-264.02 482.25,-255.25"/>
<polygon fill="black" stroke="black" points="485.75,-255.11 482.25,-245.11 478.75,-255.11 485.75,-255.11"/>
</g>
<!-- Finish -->
<g id="node14" class="node">
<title>Finish</title>
<ellipse fill="none" stroke="black" cx="482.25" cy="-70" rx="482.49" ry="70.01"/>
<text text-anchor="middle" x="482.25" y="-104.3" font-family="Times,serif" font-size="14.00">Finish</text>
<text text-anchor="middle" x="482.25" y="-73.3" font-family="Times,serif" font-size="14.00">The page is all set up for you to add your card details and save them.</text>
<text text-anchor="middle" x="482.25" y="-58.3" font-family="Times,serif" font-size="14.00">Now, you can enter your cardholder&#39;s name and card information, then click</text>
<text text-anchor="middle" x="482.25" y="-43.3" font-family="Times,serif" font-size="14.00">the &quot;Save Card&quot; button when you&#39;re done.</text>
<text text-anchor="middle" x="482.25" y="-28.3" font-family="Times,serif" font-size="14.00">The website takes care of the technical stuff to make sure your card information is kept safe.</text>
</g>
<!-- Save Button&#45;&gt;Finish -->
<g id="edge13" class="edge">
<title>Save Button&#45;&gt;Finish</title>
<path fill="none" stroke="black" d="M482.25,-175.98C482.25,-168.07 482.25,-159.3 482.25,-150.3"/>
<polygon fill="black" stroke="black" points="485.75,-150.08 482.25,-140.08 478.75,-150.08 485.75,-150.08"/>
</g>
</g>
</svg>
