<?xml version="1.0" encoding="UTF-8" standalone="no"?>
<!DOCTYPE svg PUBLIC "-//W3C//DTD SVG 1.1//EN"
 "http://www.w3.org/Graphics/SVG/1.1/DTD/svg11.dtd">
<!-- Generated by graphviz version 2.50.0 (0)
 -->
<!-- Pages: 1 -->
<svg width="705pt" height="1223pt"
 viewBox="0.00 0.00 705.00 1222.95" xmlns="http://www.w3.org/2000/svg" xmlns:xlink="http://www.w3.org/1999/xlink">
<g id="graph0" class="graph" transform="scale(1 1) rotate(0) translate(4 1218.95)">
<!-- Starting Point -->
<g id="node1" class="node">
<title>Starting Point</title>
<ellipse fill="none" stroke="black" cx="348.5" cy="-1166.16" rx="288.5" ry="48.58"/>
<text text-anchor="middle" x="348.5" y="-1185.46" font-family="Times,serif" font-size="14.00">Starting Point</text>
<text text-anchor="middle" x="348.5" y="-1154.46" font-family="Times,serif" font-size="14.00">Imagine you want to buy a subscription for something,</text>
<text text-anchor="middle" x="348.5" y="-1139.46" font-family="Times,serif" font-size="14.00"> like a magazine or a streaming service.</text>
</g>
<!-- You Click the Plan -->
<g id="node2" class="node">
<title>You Click the Plan</title>
<polygon fill="none" stroke="black" points="559.5,-1081.37 137.5,-1081.37 137.5,-1012.37 559.5,-1012.37 559.5,-1081.37"/>
<text text-anchor="middle" x="348.5" y="-1066.17" font-family="Times,serif" font-size="14.00">You Click the Plan</text>
<text text-anchor="middle" x="348.5" y="-1035.17" font-family="Times,serif" font-size="14.00">You go to a website and see different subscription plans.</text>
<text text-anchor="middle" x="348.5" y="-1020.17" font-family="Times,serif" font-size="14.00">You click on the plan you want to buy.</text>
</g>
<!-- Starting Point&#45;&gt;You Click the Plan -->
<g id="edge1" class="edge">
<title>Starting Point&#45;&gt;You Click the Plan</title>
<path fill="none" stroke="black" d="M348.5,-1117.11C348.5,-1108.75 348.5,-1100.09 348.5,-1091.84"/>
<polygon fill="black" stroke="black" points="352,-1091.67 348.5,-1081.67 345,-1091.67 352,-1091.67"/>
</g>
<!-- Getting Ready -->
<g id="node3" class="node">
<title>Getting Ready</title>
<polygon fill="none" stroke="black" points="571.5,-976.37 125.5,-976.37 125.5,-907.37 571.5,-907.37 571.5,-976.37"/>
<text text-anchor="middle" x="348.5" y="-961.17" font-family="Times,serif" font-size="14.00">Getting Ready</text>
<text text-anchor="middle" x="348.5" y="-930.17" font-family="Times,serif" font-size="14.00">When you click, a special action happens behind the scenes.</text>
<text text-anchor="middle" x="348.5" y="-915.17" font-family="Times,serif" font-size="14.00">It prepares everything to make sure you can buy the plan.</text>
</g>
<!-- You Click the Plan&#45;&gt;Getting Ready -->
<g id="edge2" class="edge">
<title>You Click the Plan&#45;&gt;Getting Ready</title>
<path fill="none" stroke="black" d="M348.5,-1012.14C348.5,-1004.05 348.5,-995.29 348.5,-986.81"/>
<polygon fill="black" stroke="black" points="352,-986.67 348.5,-976.67 345,-986.67 352,-986.67"/>
</g>
<!-- Checking Your Information -->
<g id="node4" class="node">
<title>Checking Your Information</title>
<polygon fill="none" stroke="black" points="532,-871.37 165,-871.37 165,-787.37 532,-787.37 532,-871.37"/>
<text text-anchor="middle" x="348.5" y="-856.17" font-family="Times,serif" font-size="14.00">Checking Your Information</text>
<text text-anchor="middle" x="348.5" y="-825.17" font-family="Times,serif" font-size="14.00">The system checks if you&#39;re already logged in.</text>
<text text-anchor="middle" x="348.5" y="-810.17" font-family="Times,serif" font-size="14.00">If you are, it gets ready to help you buy the plan.</text>
<text text-anchor="middle" x="348.5" y="-795.17" font-family="Times,serif" font-size="14.00">If not, it might ask you to reload the page.</text>
</g>
<!-- Getting Ready&#45;&gt;Checking Your Information -->
<g id="edge3" class="edge">
<title>Getting Ready&#45;&gt;Checking Your Information</title>
<path fill="none" stroke="black" d="M348.5,-907.11C348.5,-899.08 348.5,-890.34 348.5,-881.72"/>
<polygon fill="black" stroke="black" points="352,-881.71 348.5,-871.71 345,-881.71 352,-881.71"/>
</g>
<!-- Checking Your Cards -->
<g id="node5" class="node">
<title>Checking Your Cards</title>
<polygon fill="none" stroke="black" points="668.5,-751.37 28.5,-751.37 28.5,-682.37 668.5,-682.37 668.5,-751.37"/>
<text text-anchor="middle" x="348.5" y="-736.17" font-family="Times,serif" font-size="14.00">Checking Your Cards</text>
<text text-anchor="middle" x="348.5" y="-705.17" font-family="Times,serif" font-size="14.00">The system also checks if you have any payment cards saved.</text>
<text text-anchor="middle" x="348.5" y="-690.17" font-family="Times,serif" font-size="14.00">If you do, it looks at your current subscription (if you have one) to see if it&#39;s still active.</text>
</g>
<!-- Checking Your Information&#45;&gt;Checking Your Cards -->
<g id="edge4" class="edge">
<title>Checking Your Information&#45;&gt;Checking Your Cards</title>
<path fill="none" stroke="black" d="M348.5,-787.22C348.5,-778.85 348.5,-770.01 348.5,-761.55"/>
<polygon fill="black" stroke="black" points="352,-761.47 348.5,-751.47 345,-761.47 352,-761.47"/>
</g>
<!-- Deciding What to Do -->
<g id="node6" class="node">
<title>Deciding What to Do</title>
<polygon fill="none" stroke="black" points="697,-646.37 0,-646.37 0,-532.37 697,-532.37 697,-646.37"/>
<text text-anchor="middle" x="348.5" y="-631.17" font-family="Times,serif" font-size="14.00">Deciding What to Do</text>
<text text-anchor="middle" x="348.5" y="-600.17" font-family="Times,serif" font-size="14.00">Depending on your current subscription and the plan you&#39;re buying, a decision is made:</text>
<text text-anchor="middle" x="348.5" y="-585.17" font-family="Times,serif" font-size="14.00">&#45; If you have an active subscription and it&#39;s been around for a month or more,</text>
<text text-anchor="middle" x="348.5" y="-570.17" font-family="Times,serif" font-size="14.00"> the system can offer you a new subscription and cancel the old one.</text>
<text text-anchor="middle" x="348.5" y="-555.17" font-family="Times,serif" font-size="14.00">&#45; If not, it might ask you if you&#39;re sure about getting the new subscription.</text>
<text text-anchor="middle" x="348.5" y="-540.17" font-family="Times,serif" font-size="14.00">&#45; If you don&#39;t have any active subscription or cards, it might ask you to add a card for payment.</text>
</g>
<!-- Checking Your Cards&#45;&gt;Deciding What to Do -->
<g id="edge5" class="edge">
<title>Checking Your Cards&#45;&gt;Deciding What to Do</title>
<path fill="none" stroke="black" d="M348.5,-682.24C348.5,-674.22 348.5,-665.38 348.5,-656.46"/>
<polygon fill="black" stroke="black" points="352,-656.38 348.5,-646.38 345,-656.38 352,-656.38"/>
</g>
<!-- Your Confirmation -->
<g id="node7" class="node">
<title>Your Confirmation</title>
<polygon fill="none" stroke="black" points="685,-496.37 12,-496.37 12,-442.37 685,-442.37 685,-496.37"/>
<text text-anchor="middle" x="348.5" y="-481.17" font-family="Times,serif" font-size="14.00">Your Confirmation</text>
<text text-anchor="middle" x="348.5" y="-450.17" font-family="Times,serif" font-size="14.00">If everything looks good and you&#39;re sure, you confirm your decision to buy the subscription.</text>
</g>
<!-- Deciding What to Do&#45;&gt;Your Confirmation -->
<g id="edge6" class="edge">
<title>Deciding What to Do&#45;&gt;Your Confirmation</title>
<path fill="none" stroke="black" d="M348.5,-532.13C348.5,-523.46 348.5,-514.72 348.5,-506.64"/>
<polygon fill="black" stroke="black" points="352,-506.47 348.5,-496.47 345,-506.47 352,-506.47"/>
</g>
<!-- Paying for the Plan -->
<g id="node8" class="node">
<title>Paying for the Plan</title>
<polygon fill="none" stroke="black" points="685.5,-406.37 11.5,-406.37 11.5,-322.37 685.5,-322.37 685.5,-406.37"/>
<text text-anchor="middle" x="348.5" y="-391.17" font-family="Times,serif" font-size="14.00">Paying for the Plan</text>
<text text-anchor="middle" x="348.5" y="-360.17" font-family="Times,serif" font-size="14.00">This is where the magic happens.</text>
<text text-anchor="middle" x="348.5" y="-345.17" font-family="Times,serif" font-size="14.00">The system sends your request to buy the subscription to the people who handle payments.</text>
<text text-anchor="middle" x="348.5" y="-330.17" font-family="Times,serif" font-size="14.00">They make sure your payment goes through securely.</text>
</g>
<!-- Your Confirmation&#45;&gt;Paying for the Plan -->
<g id="edge7" class="edge">
<title>Your Confirmation&#45;&gt;Paying for the Plan</title>
<path fill="none" stroke="black" d="M348.5,-442.11C348.5,-434.31 348.5,-425.49 348.5,-416.68"/>
<polygon fill="black" stroke="black" points="352,-416.39 348.5,-406.39 345,-416.39 352,-416.39"/>
</g>
<!-- Success or Not -->
<g id="node9" class="node">
<title>Success or Not</title>
<polygon fill="none" stroke="black" points="594,-286.37 103,-286.37 103,-232.37 594,-232.37 594,-286.37"/>
<text text-anchor="middle" x="348.5" y="-271.17" font-family="Times,serif" font-size="14.00">Success or Not</text>
<text text-anchor="middle" x="348.5" y="-240.17" font-family="Times,serif" font-size="14.00">They tell the system whether your payment was successful or not.</text>
</g>
<!-- Paying for the Plan&#45;&gt;Success or Not -->
<g id="edge8" class="edge">
<title>Paying for the Plan&#45;&gt;Success or Not</title>
<path fill="none" stroke="black" d="M348.5,-322.36C348.5,-313.84 348.5,-304.92 348.5,-296.59"/>
<polygon fill="black" stroke="black" points="352,-296.42 348.5,-286.42 345,-296.42 352,-296.42"/>
</g>
<!-- Updating Your Info -->
<g id="node10" class="node">
<title>Updating Your Info</title>
<polygon fill="none" stroke="black" points="602,-196.37 95,-196.37 95,-112.37 602,-112.37 602,-196.37"/>
<text text-anchor="middle" x="348.5" y="-181.17" font-family="Times,serif" font-size="14.00">Updating Your Info</text>
<text text-anchor="middle" x="348.5" y="-150.17" font-family="Times,serif" font-size="14.00">If everything went well, your subscription information gets updated.</text>
<text text-anchor="middle" x="348.5" y="-135.17" font-family="Times,serif" font-size="14.00">The system makes a note of your new subscription </text>
<text text-anchor="middle" x="348.5" y="-120.17" font-family="Times,serif" font-size="14.00"> and might even show you a message saying &quot;Success!&quot;</text>
</g>
<!-- Success or Not&#45;&gt;Updating Your Info -->
<g id="edge9" class="edge">
<title>Success or Not&#45;&gt;Updating Your Info</title>
<path fill="none" stroke="black" d="M348.5,-232.11C348.5,-224.31 348.5,-215.49 348.5,-206.68"/>
<polygon fill="black" stroke="black" points="352,-206.39 348.5,-196.39 345,-206.39 352,-206.39"/>
</g>
<!-- Finishing -->
<g id="node11" class="node">
<title>Finishing</title>
<ellipse fill="none" stroke="black" cx="348.5" cy="-38.18" rx="334.42" ry="38.37"/>
<text text-anchor="middle" x="348.5" y="-49.98" font-family="Times,serif" font-size="14.00">Finishing</text>
<text text-anchor="middle" x="348.5" y="-18.98" font-family="Times,serif" font-size="14.00">The process ends. You&#39;re all set to enjoy your new subscription!</text>
</g>
<!-- Updating Your Info&#45;&gt;Finishing -->
<g id="edge10" class="edge">
<title>Updating Your Info&#45;&gt;Finishing</title>
<path fill="none" stroke="black" d="M348.5,-112.14C348.5,-103.88 348.5,-95.13 348.5,-86.67"/>
<polygon fill="black" stroke="black" points="352,-86.55 348.5,-76.55 345,-86.55 352,-86.55"/>
</g>
</g>
</svg>
