<?xml version="1.0" encoding="UTF-8" standalone="no"?>
<!DOCTYPE svg PUBLIC "-//W3C//DTD SVG 1.1//EN"
 "http://www.w3.org/Graphics/SVG/1.1/DTD/svg11.dtd">
<!-- Generated by graphviz version 2.50.0 (0)
 -->
<!-- Pages: 1 -->
<svg width="605pt" height="828pt"
 viewBox="0.00 0.00 604.80 827.80" xmlns="http://www.w3.org/2000/svg" xmlns:xlink="http://www.w3.org/1999/xlink">
<g id="graph0" class="graph" transform="scale(1 1) rotate(0) translate(4 823.8)">
<!-- You Click the Button -->
<g id="node1" class="node">
<title>You Click the Button</title>
<ellipse fill="none" stroke="black" cx="298.4" cy="-760.4" rx="298.3" ry="59.29"/>
<text text-anchor="middle" x="298.4" y="-787.2" font-family="Times,serif" font-size="14.00">You Click the Button</text>
<text text-anchor="middle" x="298.4" y="-756.2" font-family="Times,serif" font-size="14.00">When you click the &quot;Profile&quot; button on the website,</text>
<text text-anchor="middle" x="298.4" y="-741.2" font-family="Times,serif" font-size="14.00">you&#39;re telling the website that you want to do something</text>
<text text-anchor="middle" x="298.4" y="-726.2" font-family="Times,serif" font-size="14.00">related to your profile.</text>
</g>
<!-- Button Gets Disabled -->
<g id="node2" class="node">
<title>Button Gets Disabled</title>
<polygon fill="none" stroke="black" points="518.9,-665.01 77.9,-665.01 77.9,-581.01 518.9,-581.01 518.9,-665.01"/>
<text text-anchor="middle" x="298.4" y="-649.81" font-family="Times,serif" font-size="14.00">Button Gets Disabled</text>
<text text-anchor="middle" x="298.4" y="-618.81" font-family="Times,serif" font-size="14.00">As soon as you click the button, it becomes temporarily</text>
<text text-anchor="middle" x="298.4" y="-603.81" font-family="Times,serif" font-size="14.00">disabled. This prevents any accidental multiple clicks while</text>
<text text-anchor="middle" x="298.4" y="-588.81" font-family="Times,serif" font-size="14.00">the website is working on your request.</text>
</g>
<!-- You Click the Button&#45;&gt;Button Gets Disabled -->
<g id="edge1" class="edge">
<title>You Click the Button&#45;&gt;Button Gets Disabled</title>
<path fill="none" stroke="black" d="M298.4,-700.8C298.4,-692.36 298.4,-683.73 298.4,-675.44"/>
<polygon fill="black" stroke="black" points="301.9,-675.16 298.4,-665.16 294.9,-675.16 301.9,-675.16"/>
</g>
<!-- Checking Conditions -->
<g id="node3" class="node">
<title>Checking Conditions</title>
<polygon fill="none" stroke="black" points="492.4,-545.01 104.4,-545.01 104.4,-431.01 492.4,-431.01 492.4,-545.01"/>
<text text-anchor="middle" x="298.4" y="-529.81" font-family="Times,serif" font-size="14.00">Checking Conditions</text>
<text text-anchor="middle" x="298.4" y="-498.81" font-family="Times,serif" font-size="14.00">The website checks a couple of things.</text>
<text text-anchor="middle" x="298.4" y="-483.81" font-family="Times,serif" font-size="14.00">&#45; It wants to make sure that there&#39;s a specific job ID</text>
<text text-anchor="middle" x="298.4" y="-468.81" font-family="Times,serif" font-size="14.00">(a unique identifier) available.</text>
<text text-anchor="middle" x="298.4" y="-453.81" font-family="Times,serif" font-size="14.00">&#45; It checks if a particular section, called a modal, is</text>
<text text-anchor="middle" x="298.4" y="-438.81" font-family="Times,serif" font-size="14.00">open on the screen.</text>
</g>
<!-- Button Gets Disabled&#45;&gt;Checking Conditions -->
<g id="edge2" class="edge">
<title>Button Gets Disabled&#45;&gt;Checking Conditions</title>
<path fill="none" stroke="black" d="M298.4,-580.65C298.4,-572.65 298.4,-564.08 298.4,-555.51"/>
<polygon fill="black" stroke="black" points="301.9,-555.48 298.4,-545.48 294.9,-555.48 301.9,-555.48"/>
</g>
<!-- Preparing to Move -->
<g id="node4" class="node">
<title>Preparing to Move</title>
<polygon fill="none" stroke="black" points="505.9,-395.01 90.9,-395.01 90.9,-311.01 505.9,-311.01 505.9,-395.01"/>
<text text-anchor="middle" x="298.4" y="-379.81" font-family="Times,serif" font-size="14.00">Preparing to Move</text>
<text text-anchor="middle" x="298.4" y="-348.81" font-family="Times,serif" font-size="14.00">If both the job ID and the open modal are in the</text>
<text text-anchor="middle" x="298.4" y="-333.81" font-family="Times,serif" font-size="14.00">right condition, the website gets ready to do something</text>
<text text-anchor="middle" x="298.4" y="-318.81" font-family="Times,serif" font-size="14.00">important.</text>
</g>
<!-- Checking Conditions&#45;&gt;Preparing to Move -->
<g id="edge3" class="edge">
<title>Checking Conditions&#45;&gt;Preparing to Move</title>
<path fill="none" stroke="black" d="M298.4,-430.99C298.4,-422.41 298.4,-413.59 298.4,-405.12"/>
<polygon fill="black" stroke="black" points="301.9,-405.01 298.4,-395.01 294.9,-405.01 301.9,-405.01"/>
</g>
<!-- Moving to a New Page -->
<g id="node5" class="node">
<title>Moving to a New Page</title>
<polygon fill="none" stroke="black" points="495.9,-275.01 100.9,-275.01 100.9,-176.01 495.9,-176.01 495.9,-275.01"/>
<text text-anchor="middle" x="298.4" y="-259.81" font-family="Times,serif" font-size="14.00">Moving to a New Page</text>
<text text-anchor="middle" x="298.4" y="-228.81" font-family="Times,serif" font-size="14.00">The website changes the web address, like when you</text>
<text text-anchor="middle" x="298.4" y="-213.81" font-family="Times,serif" font-size="14.00"> type a new address in your browser.</text>
<text text-anchor="middle" x="298.4" y="-198.81" font-family="Times,serif" font-size="14.00">In this case, it moves to a different page, which is a</text>
<text text-anchor="middle" x="298.4" y="-183.81" font-family="Times,serif" font-size="14.00">special feedback page related to the job ID you have.</text>
</g>
<!-- Preparing to Move&#45;&gt;Moving to a New Page -->
<g id="edge4" class="edge">
<title>Preparing to Move&#45;&gt;Moving to a New Page</title>
<path fill="none" stroke="black" d="M298.4,-310.91C298.4,-302.69 298.4,-293.91 298.4,-285.22"/>
<polygon fill="black" stroke="black" points="301.9,-285.12 298.4,-275.12 294.9,-285.12 301.9,-285.12"/>
</g>
<!-- Process Complete -->
<g id="node6" class="node">
<title>Process Complete</title>
<ellipse fill="none" stroke="black" cx="298.4" cy="-70" rx="270.23" ry="70.01"/>
<text text-anchor="middle" x="298.4" y="-104.3" font-family="Times,serif" font-size="14.00">Process Complete</text>
<text text-anchor="middle" x="298.4" y="-73.3" font-family="Times,serif" font-size="14.00">That&#39;s it! The process is finished.</text>
<text text-anchor="middle" x="298.4" y="-58.3" font-family="Times,serif" font-size="14.00">You&#39;ve successfully clicked the &quot;Profile&quot; button,</text>
<text text-anchor="middle" x="298.4" y="-43.3" font-family="Times,serif" font-size="14.00">and the website took you to a different page where</text>
<text text-anchor="middle" x="298.4" y="-28.3" font-family="Times,serif" font-size="14.00">you can give feedback about the job.</text>
</g>
<!-- Moving to a New Page&#45;&gt;Process Complete -->
<g id="edge5" class="edge">
<title>Moving to a New Page&#45;&gt;Process Complete</title>
<path fill="none" stroke="black" d="M298.4,-175.94C298.4,-167.73 298.4,-159.02 298.4,-150.27"/>
<polygon fill="black" stroke="black" points="301.9,-150.01 298.4,-140.01 294.9,-150.01 301.9,-150.01"/>
</g>
</g>
</svg>
