<?xml version="1.0" encoding="UTF-8" standalone="no"?>
<!DOCTYPE svg PUBLIC "-//W3C//DTD SVG 1.1//EN"
 "http://www.w3.org/Graphics/SVG/1.1/DTD/svg11.dtd">
<!-- Generated by graphviz version 2.50.0 (0)
 -->
<!-- Pages: 1 -->
<svg width="834pt" height="794pt"
 viewBox="0.00 0.00 833.90 794.16" xmlns="http://www.w3.org/2000/svg" xmlns:xlink="http://www.w3.org/1999/xlink">
<g id="graph0" class="graph" transform="scale(1 1) rotate(0) translate(4 790.16)">
<!-- Starting Point -->
<g id="node1" class="node">
<title>Starting Point</title>
<ellipse fill="none" stroke="black" cx="412.95" cy="-737.37" rx="334.42" ry="48.58"/>
<text text-anchor="middle" x="412.95" y="-756.67" font-family="Times,serif" font-size="14.00">Starting Point</text>
<text text-anchor="middle" x="412.95" y="-725.67" font-family="Times,serif" font-size="14.00">Imagine you&#39;re on a website and you want to create an account.</text>
<text text-anchor="middle" x="412.95" y="-710.67" font-family="Times,serif" font-size="14.00">To do this, you click on the &quot;Register&quot; button.</text>
</g>
<!-- Entering Information -->
<g id="node2" class="node">
<title>Entering Information</title>
<polygon fill="none" stroke="black" points="649.45,-652.58 176.45,-652.58 176.45,-568.58 649.45,-568.58 649.45,-652.58"/>
<text text-anchor="middle" x="412.95" y="-637.38" font-family="Times,serif" font-size="14.00">Entering Information</text>
<text text-anchor="middle" x="412.95" y="-606.38" font-family="Times,serif" font-size="14.00">A form appears on the screen asking you for various details like</text>
<text text-anchor="middle" x="412.95" y="-591.38" font-family="Times,serif" font-size="14.00">your first name, last name, email, password, phone number,</text>
<text text-anchor="middle" x="412.95" y="-576.38" font-family="Times,serif" font-size="14.00">preferred language, and any referral code you might have.</text>
</g>
<!-- Starting Point&#45;&gt;Entering Information -->
<g id="edge1" class="edge">
<title>Starting Point&#45;&gt;Entering Information</title>
<path fill="none" stroke="black" d="M412.95,-688.48C412.95,-680.08 412.95,-671.3 412.95,-662.81"/>
<polygon fill="black" stroke="black" points="416.45,-662.64 412.95,-652.64 409.45,-662.64 416.45,-662.64"/>
</g>
<!-- Moving Forward -->
<g id="node3" class="node">
<title>Moving Forward</title>
<polygon fill="none" stroke="black" points="620.95,-532.58 204.95,-532.58 204.95,-463.58 620.95,-463.58 620.95,-532.58"/>
<text text-anchor="middle" x="412.95" y="-517.38" font-family="Times,serif" font-size="14.00">Moving Forward</text>
<text text-anchor="middle" x="412.95" y="-486.38" font-family="Times,serif" font-size="14.00">After filling in these details, you click the &quot;Next&quot; button</text>
<text text-anchor="middle" x="412.95" y="-471.38" font-family="Times,serif" font-size="14.00">to move to the next step of the registration process.</text>
</g>
<!-- Entering Information&#45;&gt;Moving Forward -->
<g id="edge2" class="edge">
<title>Entering Information&#45;&gt;Moving Forward</title>
<path fill="none" stroke="black" d="M412.95,-568.43C412.95,-560.06 412.95,-551.22 412.95,-542.76"/>
<polygon fill="black" stroke="black" points="416.45,-542.68 412.95,-532.68 409.45,-542.68 416.45,-542.68"/>
</g>
<!-- Advancing Steps -->
<g id="node4" class="node">
<title>Advancing Steps</title>
<polygon fill="none" stroke="black" points="739.45,-427.58 86.45,-427.58 86.45,-343.58 739.45,-343.58 739.45,-427.58"/>
<text text-anchor="middle" x="412.95" y="-412.38" font-family="Times,serif" font-size="14.00">Advancing Steps</text>
<text text-anchor="middle" x="412.95" y="-381.38" font-family="Times,serif" font-size="14.00">When you click &quot;Next,&quot; a special function is called that helps you move forward.</text>
<text text-anchor="middle" x="412.95" y="-366.38" font-family="Times,serif" font-size="14.00">It checks which step you&#39;re on and takes you to the next step in the registration process.</text>
<text text-anchor="middle" x="412.95" y="-351.38" font-family="Times,serif" font-size="14.00">If you&#39;re on the last step, it might start the process all over again to the first step.</text>
</g>
<!-- Moving Forward&#45;&gt;Advancing Steps -->
<g id="edge3" class="edge">
<title>Moving Forward&#45;&gt;Advancing Steps</title>
<path fill="none" stroke="black" d="M412.95,-463.33C412.95,-455.3 412.95,-446.55 412.95,-437.93"/>
<polygon fill="black" stroke="black" points="416.45,-437.92 412.95,-427.92 409.45,-437.92 416.45,-437.92"/>
</g>
<!-- Repeating Steps -->
<g id="node5" class="node">
<title>Repeating Steps</title>
<polygon fill="none" stroke="black" points="683.45,-307.58 142.45,-307.58 142.45,-238.58 683.45,-238.58 683.45,-307.58"/>
<text text-anchor="middle" x="412.95" y="-292.38" font-family="Times,serif" font-size="14.00">Repeating Steps</text>
<text text-anchor="middle" x="412.95" y="-261.38" font-family="Times,serif" font-size="14.00">In each step, you fill in the necessary information, and when you&#39;re done,</text>
<text text-anchor="middle" x="412.95" y="-246.38" font-family="Times,serif" font-size="14.00">you click &quot;Next&quot; again to proceed to the next part.</text>
</g>
<!-- Advancing Steps&#45;&gt;Repeating Steps -->
<g id="edge4" class="edge">
<title>Advancing Steps&#45;&gt;Repeating Steps</title>
<path fill="none" stroke="black" d="M412.95,-343.43C412.95,-335.06 412.95,-326.22 412.95,-317.76"/>
<polygon fill="black" stroke="black" points="416.45,-317.68 412.95,-307.68 409.45,-317.68 416.45,-317.68"/>
</g>
<!-- Saving Your Information -->
<g id="node6" class="node">
<title>Saving Your Information</title>
<polygon fill="none" stroke="black" points="727.95,-202.58 97.95,-202.58 97.95,-133.58 727.95,-133.58 727.95,-202.58"/>
<text text-anchor="middle" x="412.95" y="-187.38" font-family="Times,serif" font-size="14.00">Saving Your Information</text>
<text text-anchor="middle" x="412.95" y="-156.38" font-family="Times,serif" font-size="14.00">As you go through the steps, the information you provide (like your name, email, etc.)</text>
<text text-anchor="middle" x="412.95" y="-141.38" font-family="Times,serif" font-size="14.00">is saved temporarily in the background.</text>
</g>
<!-- Repeating Steps&#45;&gt;Saving Your Information -->
<g id="edge5" class="edge">
<title>Repeating Steps&#45;&gt;Saving Your Information</title>
<path fill="none" stroke="black" d="M412.95,-238.35C412.95,-230.26 412.95,-221.5 412.95,-213.02"/>
<polygon fill="black" stroke="black" points="416.45,-212.88 412.95,-202.88 409.45,-212.88 416.45,-212.88"/>
</g>
<!-- Finishing the Process -->
<g id="node7" class="node">
<title>Finishing the Process</title>
<ellipse fill="none" stroke="black" cx="412.95" cy="-48.79" rx="412.9" ry="48.58"/>
<text text-anchor="middle" x="412.95" y="-68.09" font-family="Times,serif" font-size="14.00">Finishing the Process</text>
<text text-anchor="middle" x="412.95" y="-37.09" font-family="Times,serif" font-size="14.00">Finally, after completing all the steps, your registration is complete!</text>
<text text-anchor="middle" x="412.95" y="-22.09" font-family="Times,serif" font-size="14.00">The website will process your information and might create an account for you.</text>
</g>
<!-- Saving Your Information&#45;&gt;Finishing the Process -->
<g id="edge6" class="edge">
<title>Saving Your Information&#45;&gt;Finishing the Process</title>
<path fill="none" stroke="black" d="M412.95,-133.47C412.95,-125.49 412.95,-116.75 412.95,-108.02"/>
<polygon fill="black" stroke="black" points="416.45,-107.83 412.95,-97.83 409.45,-107.83 416.45,-107.83"/>
</g>
</g>
</svg>
