<?xml version="1.0" encoding="UTF-8" standalone="no"?>
<!DOCTYPE svg PUBLIC "-//W3C//DTD SVG 1.1//EN"
 "http://www.w3.org/Graphics/SVG/1.1/DTD/svg11.dtd">
<!-- Generated by graphviz version 2.50.0 (0)
 -->
<!-- Pages: 1 -->
<svg width="865pt" height="1463pt"
 viewBox="0.00 0.00 865.01 1463.16" xmlns="http://www.w3.org/2000/svg" xmlns:xlink="http://www.w3.org/1999/xlink">
<g id="graph0" class="graph" transform="scale(1 1) rotate(0) translate(4 1459.16)">
<!-- Start -->
<g id="node1" class="node">
<title>Start</title>
<ellipse fill="none" stroke="black" cx="428.51" cy="-1406.37" rx="220.73" ry="48.58"/>
<text text-anchor="middle" x="428.51" y="-1425.67" font-family="Times,serif" font-size="14.00">Start</text>
<text text-anchor="middle" x="428.51" y="-1394.67" font-family="Times,serif" font-size="14.00">Imagine you&#39;re on a website&#39;s login page,</text>
<text text-anchor="middle" x="428.51" y="-1379.67" font-family="Times,serif" font-size="14.00">and you want to log in to your account.</text>
</g>
<!-- Check if Loading -->
<g id="node2" class="node">
<title>Check if Loading</title>
<polygon fill="none" stroke="black" points="619.01,-1321.58 238.01,-1321.58 238.01,-1237.58 619.01,-1237.58 619.01,-1321.58"/>
<text text-anchor="middle" x="428.51" y="-1306.38" font-family="Times,serif" font-size="14.00">Check if Loading</text>
<text text-anchor="middle" x="428.51" y="-1275.38" font-family="Times,serif" font-size="14.00">Sometimes, websites might take a moment</text>
<text text-anchor="middle" x="428.51" y="-1260.38" font-family="Times,serif" font-size="14.00">to process your request. If you see a spinning icon,</text>
<text text-anchor="middle" x="428.51" y="-1245.38" font-family="Times,serif" font-size="14.00">it means the website is working on your request.</text>
</g>
<!-- Start&#45;&gt;Check if Loading -->
<g id="edge1" class="edge">
<title>Start&#45;&gt;Check if Loading</title>
<path fill="none" stroke="black" d="M428.51,-1357.48C428.51,-1349.08 428.51,-1340.3 428.51,-1331.81"/>
<polygon fill="black" stroke="black" points="432.01,-1331.64 428.51,-1321.64 425.01,-1331.64 432.01,-1331.64"/>
</g>
<!-- Enter Your Details -->
<g id="node3" class="node">
<title>Enter Your Details</title>
<polygon fill="none" stroke="black" points="665.01,-1201.58 192.01,-1201.58 192.01,-1117.58 665.01,-1117.58 665.01,-1201.58"/>
<text text-anchor="middle" x="428.51" y="-1186.38" font-family="Times,serif" font-size="14.00">Enter Your Details</text>
<text text-anchor="middle" x="428.51" y="-1155.38" font-family="Times,serif" font-size="14.00">You&#39;ll see two boxes where you can type</text>
<text text-anchor="middle" x="428.51" y="-1140.38" font-family="Times,serif" font-size="14.00">your email address and password – just like when you</text>
<text text-anchor="middle" x="428.51" y="-1125.38" font-family="Times,serif" font-size="14.00">type a message on your phone. Fill in your email and password.</text>
</g>
<!-- Check if Loading&#45;&gt;Enter Your Details -->
<g id="edge2" class="edge">
<title>Check if Loading&#45;&gt;Enter Your Details</title>
<path fill="none" stroke="black" d="M428.51,-1237.31C428.51,-1229.09 428.51,-1220.36 428.51,-1211.85"/>
<polygon fill="black" stroke="black" points="432.01,-1211.63 428.51,-1201.63 425.01,-1211.63 432.01,-1211.63"/>
</g>
<!-- Check Email -->
<g id="node4" class="node">
<title>Check Email</title>
<polygon fill="none" stroke="black" points="625.51,-1081.58 231.51,-1081.58 231.51,-997.58 625.51,-997.58 625.51,-1081.58"/>
<text text-anchor="middle" x="428.51" y="-1066.38" font-family="Times,serif" font-size="14.00">Check Email</text>
<text text-anchor="middle" x="428.51" y="-1035.38" font-family="Times,serif" font-size="14.00">The website checks to make sure you entered</text>
<text text-anchor="middle" x="428.51" y="-1020.38" font-family="Times,serif" font-size="14.00">your email correctly. If it&#39;s not quite right, you might</text>
<text text-anchor="middle" x="428.51" y="-1005.38" font-family="Times,serif" font-size="14.00">see a message telling you to check it again.</text>
</g>
<!-- Enter Your Details&#45;&gt;Check Email -->
<g id="edge3" class="edge">
<title>Enter Your Details&#45;&gt;Check Email</title>
<path fill="none" stroke="black" d="M428.51,-1117.31C428.51,-1109.09 428.51,-1100.36 428.51,-1091.85"/>
<polygon fill="black" stroke="black" points="432.01,-1091.63 428.51,-1081.63 425.01,-1091.63 432.01,-1091.63"/>
</g>
<!-- Check Password -->
<g id="node5" class="node">
<title>Check Password</title>
<polygon fill="none" stroke="black" points="642.51,-961.58 214.51,-961.58 214.51,-877.58 642.51,-877.58 642.51,-961.58"/>
<text text-anchor="middle" x="428.51" y="-946.38" font-family="Times,serif" font-size="14.00">Check Password</text>
<text text-anchor="middle" x="428.51" y="-915.38" font-family="Times,serif" font-size="14.00">The website also checks your password</text>
<text text-anchor="middle" x="428.51" y="-900.38" font-family="Times,serif" font-size="14.00">to make sure it&#39;s good to go. If there&#39;s something wrong</text>
<text text-anchor="middle" x="428.51" y="-885.38" font-family="Times,serif" font-size="14.00">with it, like if it&#39;s too short, the website will let you know.</text>
</g>
<!-- Check Email&#45;&gt;Check Password -->
<g id="edge4" class="edge">
<title>Check Email&#45;&gt;Check Password</title>
<path fill="none" stroke="black" d="M428.51,-997.31C428.51,-989.09 428.51,-980.36 428.51,-971.85"/>
<polygon fill="black" stroke="black" points="432.01,-971.63 428.51,-961.63 425.01,-971.63 432.01,-971.63"/>
</g>
<!-- Click the Button -->
<g id="node6" class="node">
<title>Click the Button</title>
<polygon fill="none" stroke="black" points="428.51,-841.58 57.51,-772.58 428.51,-703.58 799.51,-772.58 428.51,-841.58"/>
<text text-anchor="middle" x="428.51" y="-791.88" font-family="Times,serif" font-size="14.00">Click the Button</text>
<text text-anchor="middle" x="428.51" y="-760.88" font-family="Times,serif" font-size="14.00">Now comes the exciting part! Click the &quot;Log In&quot;</text>
<text text-anchor="middle" x="428.51" y="-745.88" font-family="Times,serif" font-size="14.00">button – it&#39;s like pressing a button on an elevator.</text>
</g>
<!-- Check Password&#45;&gt;Click the Button -->
<g id="edge5" class="edge">
<title>Check Password&#45;&gt;Click the Button</title>
<path fill="none" stroke="black" d="M428.51,-877.42C428.51,-869.33 428.51,-860.59 428.51,-851.74"/>
<polygon fill="black" stroke="black" points="432.01,-851.73 428.51,-841.73 425.01,-851.73 432.01,-851.73"/>
</g>
<!-- Processing Your Request -->
<g id="node7" class="node">
<title>Processing Your Request</title>
<polygon fill="none" stroke="black" points="662.51,-667.58 194.51,-667.58 194.51,-583.58 662.51,-583.58 662.51,-667.58"/>
<text text-anchor="middle" x="428.51" y="-652.38" font-family="Times,serif" font-size="14.00">Processing Your Request</text>
<text text-anchor="middle" x="428.51" y="-621.38" font-family="Times,serif" font-size="14.00">The website takes what you typed (your email and password)</text>
<text text-anchor="middle" x="428.51" y="-606.38" font-family="Times,serif" font-size="14.00">and starts working on logging you in. You might see the button</text>
<text text-anchor="middle" x="428.51" y="-591.38" font-family="Times,serif" font-size="14.00">change to show that something&#39;s happening.</text>
</g>
<!-- Click the Button&#45;&gt;Processing Your Request -->
<g id="edge6" class="edge">
<title>Click the Button&#45;&gt;Processing Your Request</title>
<path fill="none" stroke="black" d="M428.51,-703.33C428.51,-694.75 428.51,-686.1 428.51,-677.85"/>
<polygon fill="black" stroke="black" points="432.01,-677.65 428.51,-667.65 425.01,-677.65 432.01,-677.65"/>
</g>
<!-- More Details -->
<g id="node8" class="node">
<title>More Details</title>
<polygon fill="none" stroke="black" points="663.51,-547.58 193.51,-547.58 193.51,-478.58 663.51,-478.58 663.51,-547.58"/>
<text text-anchor="middle" x="428.51" y="-532.38" font-family="Times,serif" font-size="14.00">More Details</text>
<text text-anchor="middle" x="428.51" y="-501.38" font-family="Times,serif" font-size="14.00">Sometimes, the website needs more information.</text>
<text text-anchor="middle" x="428.51" y="-486.38" font-family="Times,serif" font-size="14.00">It might ask about a specific job, a message, or something else.</text>
</g>
<!-- Processing Your Request&#45;&gt;More Details -->
<g id="edge7" class="edge">
<title>Processing Your Request&#45;&gt;More Details</title>
<path fill="none" stroke="black" d="M428.51,-583.43C428.51,-575.06 428.51,-566.22 428.51,-557.76"/>
<polygon fill="black" stroke="black" points="432.01,-557.68 428.51,-547.68 425.01,-557.68 432.01,-557.68"/>
</g>
<!-- Trying to Log In -->
<g id="node9" class="node">
<title>Trying to Log In</title>
<polygon fill="none" stroke="black" points="661.51,-442.58 195.51,-442.58 195.51,-373.58 661.51,-373.58 661.51,-442.58"/>
<text text-anchor="middle" x="428.51" y="-427.38" font-family="Times,serif" font-size="14.00">Trying to Log In</text>
<text text-anchor="middle" x="428.51" y="-396.38" font-family="Times,serif" font-size="14.00">The website tries to use the information you gave</text>
<text text-anchor="middle" x="428.51" y="-381.38" font-family="Times,serif" font-size="14.00">to log you into your account. If everything goes well, you&#39;re in!</text>
</g>
<!-- More Details&#45;&gt;Trying to Log In -->
<g id="edge8" class="edge">
<title>More Details&#45;&gt;Trying to Log In</title>
<path fill="none" stroke="black" d="M428.51,-478.35C428.51,-470.26 428.51,-461.5 428.51,-453.02"/>
<polygon fill="black" stroke="black" points="432.01,-452.88 428.51,-442.88 425.01,-452.88 432.01,-452.88"/>
</g>
<!-- What if Something Goes Wrong -->
<g id="node10" class="node">
<title>What if Something Goes Wrong</title>
<polygon fill="none" stroke="black" points="663.51,-337.58 193.51,-337.58 193.51,-253.58 663.51,-253.58 663.51,-337.58"/>
<text text-anchor="middle" x="428.51" y="-322.38" font-family="Times,serif" font-size="14.00">What if Something Goes Wrong</text>
<text text-anchor="middle" x="428.51" y="-291.38" font-family="Times,serif" font-size="14.00">If something doesn&#39;t work, the website will tell you</text>
<text text-anchor="middle" x="428.51" y="-276.38" font-family="Times,serif" font-size="14.00">what&#39;s wrong. Maybe your email or password was off, or there</text>
<text text-anchor="middle" x="428.51" y="-261.38" font-family="Times,serif" font-size="14.00">was some other problem. Don&#39;t worry; the website will explain.</text>
</g>
<!-- Trying to Log In&#45;&gt;What if Something Goes Wrong -->
<g id="edge9" class="edge">
<title>Trying to Log In&#45;&gt;What if Something Goes Wrong</title>
<path fill="none" stroke="black" d="M428.51,-373.33C428.51,-365.3 428.51,-356.55 428.51,-347.93"/>
<polygon fill="black" stroke="black" points="432.01,-347.92 428.51,-337.92 425.01,-347.92 432.01,-347.92"/>
</g>
<!-- Oops, an Issue -->
<g id="node11" class="node">
<title>Oops, an Issue</title>
<polygon fill="none" stroke="black" points="654.01,-217.58 203.01,-217.58 203.01,-133.58 654.01,-133.58 654.01,-217.58"/>
<text text-anchor="middle" x="428.51" y="-202.38" font-family="Times,serif" font-size="14.00">Oops, an Issue</text>
<text text-anchor="middle" x="428.51" y="-171.38" font-family="Times,serif" font-size="14.00">If there&#39;s a bigger issue and the website can&#39;t figure it out,</text>
<text text-anchor="middle" x="428.51" y="-156.38" font-family="Times,serif" font-size="14.00">it might say there&#39;s a problem and ask you to try again later.</text>
<text text-anchor="middle" x="428.51" y="-141.38" font-family="Times,serif" font-size="14.00">It&#39;s like saying, &quot;Sorry, I need a little break.&quot;</text>
</g>
<!-- What if Something Goes Wrong&#45;&gt;Oops, an Issue -->
<g id="edge10" class="edge">
<title>What if Something Goes Wrong&#45;&gt;Oops, an Issue</title>
<path fill="none" stroke="black" d="M428.51,-253.31C428.51,-245.09 428.51,-236.36 428.51,-227.85"/>
<polygon fill="black" stroke="black" points="432.01,-227.63 428.51,-217.63 425.01,-227.63 432.01,-227.63"/>
</g>
<!-- Finished -->
<g id="node12" class="node">
<title>Finished</title>
<ellipse fill="none" stroke="black" cx="428.51" cy="-48.79" rx="428.51" ry="48.58"/>
<text text-anchor="middle" x="428.51" y="-68.09" font-family="Times,serif" font-size="14.00">Finished</text>
<text text-anchor="middle" x="428.51" y="-37.09" font-family="Times,serif" font-size="14.00">That&#39;s it! The process is done. You&#39;re either logged in and ready</text>
<text text-anchor="middle" x="428.51" y="-22.09" font-family="Times,serif" font-size="14.00">to use the website, or you&#39;re looking at a message that explains what went wrong.</text>
</g>
<!-- Oops, an Issue&#45;&gt;Finished -->
<g id="edge11" class="edge">
<title>Oops, an Issue&#45;&gt;Finished</title>
<path fill="none" stroke="black" d="M428.51,-133.37C428.51,-125.21 428.51,-116.5 428.51,-107.89"/>
<polygon fill="black" stroke="black" points="432.01,-107.88 428.51,-97.88 425.01,-107.88 432.01,-107.88"/>
</g>
</g>
</svg>
